<?xml version="1.0" encoding="UTF-8" standalone="no"?><!DOCTYPE svg PUBLIC "-//W3C//DTD SVG 1.1//EN" "http://www.w3.org/Graphics/SVG/1.1/DTD/svg11.dtd"><svg width="100%" height="100%" viewBox="0 0 1024 1166" version="1.1" xmlns="http://www.w3.org/2000/svg" xmlns:xlink="http://www.w3.org/1999/xlink" xml:space="preserve" xmlns:serif="http://www.serif.com/" style="fill-rule:evenodd;clip-rule:evenodd;stroke-linejoin:round;stroke-miterlimit:2;"><g id="emu-watermark"><path d="M590.243,428.816c-8.622,0 -13.293,-10.438 -21.013,-22.911c-0.931,-0.65 -8.228,-5.169 -12.162,-6.492c-10.125,-3.403 -21.294,0.392 -24.186,-6.449c-1.18,-2.8 -1.081,-5.897 0.274,-8.727c1.136,-2.371 3.553,-5.466 8.623,-6.745c12.644,-3.193 35.59,8.231 42.591,13.322c16.259,11.8 17.923,29.089 17.983,29.815l0.424,4.959l-4.662,1.719c-2.726,1.002 -5.344,1.509 -7.872,1.509" style="fill:#659979;fill-rule:nonzero;"/><path d="M335.25,358.684c-0.982,0 -1.993,-0.032 -3.058,-0.11c-2.892,-0.187 -5.194,-0.318 -7.023,-0.42c-1.652,0.387 -3.632,0.542 -5.966,0.431c-0.074,-0.011 -0.138,-0.011 -0.205,-0.023c-1.251,-0.219 -3.134,-0.539 -2.931,-2.258c0.177,-1.509 0.232,-1.894 8.837,-1.443c1.14,-0.331 1.995,-0.838 2.555,-1.5c1.77,-2.104 0.887,-6.18 0.028,-10.125c-1.194,-5.498 -2.678,-12.34 4.463,-13.927c13.762,-3.118 25.332,13.519 25.816,14.224c0.253,0.364 0.348,0.816 0.26,1.247c-0.028,0.143 -3.037,13.904 -22.776,13.904" style="fill:#659979;fill-rule:nonzero;"/><path d="M721.638,461.001c-0.998,0 -1.984,-0.463 -2.618,-1.323c-0.991,-1.343 -0.816,-3.205 0.415,-4.341c0.341,-0.309 34.03,-31.392 46.485,-54.331c11.911,-21.926 -13.073,-72.291 -13.326,-72.787c-0.71,-1.421 -0.304,-3.129 0.963,-4.078c1.263,-0.936 3.026,-0.86 4.178,0.244l27.7,26.036l32.576,-16.616c1.157,-0.585 2.572,-0.431 3.563,0.396c1.004,0.828 1.41,2.182 1.041,3.427c-0.092,0.32 -9.59,32.274 -18.13,52.624c-12.363,29.486 -78.391,68.645 -81.195,70.297c-0.519,0.298 -1.085,0.452 -1.652,0.452" style="fill:#659979;fill-rule:nonzero;"/><path d="M695.017,439.912c-1.18,-0 -1.795,-0.606 -2.357,-1.157c-2.812,-2.765 0.364,-6.556 2.682,-9.321c15.702,-18.755 13.464,-23.603 10.363,-30.313c-1.478,-3.205 -3.15,-6.83 -3.521,-11.987c-1.266,-17.73 25.117,-31.424 26.241,-31.998c1.454,-0.726 3.233,-0.309 4.159,1.037c0.927,1.343 0.729,3.162 -0.479,4.263c-0.329,0.32 -8.632,8.528 2.231,23.271c10.86,14.732 -18.776,41.66 -24.825,46.916c-8.528,7.395 -12.399,9.289 -14.494,9.289" style="fill:#659979;fill-rule:nonzero;"/><path d="M901.078,491.39l-0.175,-0c-1.743,-0.056 -3.356,-0.947 -4.337,-2.392l-28.908,-42.718c-1.447,-2.147 -1.189,-5.014 0.625,-6.864c1.811,-1.874 4.675,-2.171 6.846,-0.761l25.05,16.221l23.933,-5.588c2.246,-0.54 4.571,0.407 5.823,2.359c1.244,1.938 1.136,4.45 -0.275,6.279l-24.273,31.36c-1.037,1.332 -2.63,2.104 -4.309,2.104" style="fill:#659979;fill-rule:nonzero;"/><path d="M680.969,727.261c-0.337,-0 -0.678,-0.033 -1.019,-0.099c-2.11,-0.397 -3.79,-2.005 -4.281,-4.1l-11.1,-47.146c-0.491,-2.072 0.274,-4.242 1.954,-5.544c1.682,-1.3 3.977,-1.519 5.862,-0.528l13.504,7.04l26.278,-7.227c2.226,-0.55 4.563,0.231 5.89,2.116c1.323,1.873 1.334,4.373 0.021,6.247l-32.641,46.904c-1.03,1.489 -2.705,2.337 -4.468,2.337" style="fill:#659979;fill-rule:nonzero;"/><path d="M805.592,480.294c-1.2,0 -2.38,-0.396 -3.343,-1.145l-25.382,-19.734c-1.883,-1.466 -2.595,-3.989 -1.747,-6.226c0.843,-2.236 3.03,-3.856 5.438,-3.503l22.108,1.41l22.946,-12.077c2.215,-1.2 4.998,-0.673 6.651,1.256c1.659,1.906 1.779,4.717 0.285,6.766l-22.554,31.016c-0.864,1.191 -2.176,1.984 -3.637,2.182c-0.258,0.044 -0.511,0.055 -0.765,0.055" style="fill:#659979;fill-rule:nonzero;"/><path d="M760.918,649.526c-1.405,-0 -2.765,-0.539 -3.786,-1.533l-38.95,-37.627c-1.811,-1.74 -2.186,-4.507 -0.903,-6.678c1.284,-2.17 3.917,-3.138 6.293,-2.433l34.394,10.577l27.203,-10.061c2.226,-0.793 4.749,-0.108 6.203,1.786c1.457,1.894 1.516,4.507 0.145,6.457l-26.142,37.198c-0.915,1.3 -2.357,2.136 -3.938,2.291c-0.178,0.023 -0.348,0.023 -0.519,0.023" style="fill:#659979;fill-rule:nonzero;"/><path d="M777,1049.58c-1.405,-0 -2.765,-0.54 -3.786,-1.533l-38.95,-37.627c-1.811,-1.74 -2.187,-4.507 -0.903,-6.678c1.283,-2.18 3.913,-3.173 6.293,-2.433l34.394,10.588l27.203,-10.072c2.221,-0.814 4.744,-0.099 6.203,1.786c1.456,1.896 1.516,4.507 0.145,6.456l-26.142,37.199c-0.915,1.3 -2.358,2.136 -3.938,2.291c-0.178,0.011 -0.348,0.023 -0.519,0.023" style="fill:#659979;fill-rule:nonzero;"/><path d="M654.773,589.74c-1.819,-0 -3.521,-0.903 -4.528,-2.424l-28.196,-42.289c-1.33,-1.993 -1.203,-4.616 0.313,-6.468c1.51,-1.851 4.065,-2.489 6.275,-1.597l19.474,7.966l30.191,-10.865c2.138,-0.758 4.528,-0.131 6.005,1.611c1.466,1.739 1.703,4.196 0.59,6.18l-25.375,45.109c-0.931,1.652 -2.65,2.701 -4.547,2.777l-0.202,-0Z" style="fill:#659979;fill-rule:nonzero;"/><path d="M837.182,772.15c-1.818,-0 -3.521,-0.904 -4.528,-2.424l-28.196,-42.289c-1.329,-1.994 -1.202,-4.616 0.314,-6.469c1.514,-1.861 4.055,-2.479 6.274,-1.596l19.481,7.966l30.184,-10.865c2.144,-0.781 4.528,-0.12 6.006,1.61c1.465,1.74 1.702,4.197 0.589,6.181l-25.375,45.109c-0.931,1.652 -2.65,2.701 -4.546,2.777l-0.203,-0Z" style="fill:#659979;fill-rule:nonzero;"/><path d="M639.804,951.088c-1.818,0 -3.521,-0.903 -4.528,-2.424l-28.196,-42.3c-1.329,-1.993 -1.203,-4.616 0.314,-6.466c1.509,-1.853 4.06,-2.503 6.274,-1.588l19.486,7.966l30.179,-10.865c2.15,-0.758 4.535,-0.131 6.005,1.611c1.466,1.74 1.703,4.196 0.59,6.18l-25.375,45.11c-0.931,1.652 -2.65,2.7 -4.546,2.776l-0.203,0Z" style="fill:#659979;fill-rule:nonzero;"/><path d="M838.24,571.339c-1.477,0 -2.904,-0.594 -3.945,-1.686l-29.915,-31.413c-1.767,-1.862 -2,-4.705 -0.555,-6.821c1.447,-2.136 4.175,-2.931 6.556,-1.984l22.547,9.181l14.822,-7.494c2.021,-1.025 4.465,-0.682 6.136,0.848c1.668,1.521 2.215,3.933 1.378,6.04l-11.966,29.914c-0.689,1.719 -2.21,2.964 -4.028,3.316c-0.341,0.067 -0.689,0.099 -1.03,0.099" style="fill:#659979;fill-rule:nonzero;"/><path d="M920.233,653.625c-1.548,-0 -3.035,-0.662 -4.076,-1.83l-27.735,-31.313c-1.668,-1.885 -1.827,-4.673 -0.389,-6.734c1.442,-2.06 4.104,-2.885 6.445,-1.949l23.976,9.356l17.402,-8.287c2.167,-1.046 4.75,-0.53 6.358,1.233c1.62,1.774 1.89,4.385 0.673,6.448l-17.964,30.398c-0.888,1.509 -2.436,2.491 -4.171,2.655c-0.171,0.011 -0.348,0.023 -0.519,0.023" style="fill:#659979;fill-rule:nonzero;"/><path d="M855.974,308.121c-0.963,0 -1.913,-0.297 -2.71,-0.859l-33.071,-23.03c-1.83,-1.265 -2.531,-3.645 -1.671,-5.705c0.848,-2.063 2.991,-3.164 5.228,-2.855l31.468,5.73l14.75,-8.155c1.899,-1.034 4.252,-0.661 5.745,0.892c1.482,1.576 1.719,3.945 0.569,5.786l-16.292,25.97c-0.689,1.102 -1.795,1.862 -3.069,2.127c-0.313,0.067 -0.634,0.099 -0.947,0.099" style="fill:#659979;fill-rule:nonzero;"/><path d="M785.33,243.763c-0.381,-0 -0.765,-0.056 -1.146,-0.143l-39.111,-9.72c-2.164,-0.539 -3.664,-2.512 -3.597,-4.747c0.067,-2.226 1.68,-4.111 3.874,-4.519l31.44,-5.871l10.876,-12.881c1.403,-1.652 3.745,-2.159 5.68,-1.212c1.95,0.935 3.019,3.074 2.6,5.201l-5.962,30.069c-0.253,1.267 -1.018,2.38 -2.108,3.074c-0.772,0.495 -1.655,0.749 -2.546,0.749" style="fill:#659979;fill-rule:nonzero;"/><path d="M590.342,283.716c19.582,-0 14.365,34.304 14.365,34.304l-39.528,10.42c-0,0 5.581,-44.724 25.163,-44.724m327.202,-39.033c-48.476,-73.289 -120.352,-108.803 -153.099,-121.952c1.304,-0.56 2.221,-0.947 2.293,-0.977c0.458,-0.189 0.806,-0.576 0.94,-1.062c0.249,-0.876 6.072,-21.497 6.072,-30.208c-0,-9.009 -29.212,-15.828 -39.139,-17.876l-25.447,-31.434c-0.41,-0.509 -1.081,-0.698 -1.7,-0.553l-28.417,7.704l-39.146,-47.718c-0.343,-0.42 -0.853,-0.687 -1.417,-0.585c-0.537,0.043 -1.019,0.352 -1.279,0.829l-30.339,54.624c-6.784,-8.489 -30.783,-37.579 -41.763,-38.752c-1.616,-0.122 -2.954,0.21 -4.017,1.083c-6.917,5.768 -12.535,51.516 -15.01,75.082l-2.323,-15.497c-4.433,-29.564 -62.378,-32.122 -64.846,-32.221c-0.631,-0.177 -1.12,0.256 -1.428,0.742c-0.316,0.475 -0.355,1.083 -0.106,1.604l14.71,30.56l-96.956,8.657c-0.498,0.044 -0.952,0.311 -1.224,0.731c-0.276,0.421 -0.343,0.94 -0.186,1.405l15.699,47.386c-7.98,-9.964 -22.492,-26.843 -33.62,-32.919c-16.144,-8.734 -68.051,28.004 -73.911,32.233c-0.544,0.387 -0.793,1.073 -0.631,1.725l6.862,27.673l-29.544,23.287c-0.703,0.554 -0.829,1.572 -0.281,2.282l19.856,25.854l-33.265,17.955c-0.421,0.222 -0.726,0.62 -0.825,1.097c-0.099,0.463 0.005,0.95 0.293,1.328l22.769,30.096l-4.977,29.491c-0.275,0.502 -0.696,0.876 -0.908,1.422l-21.808,56.684c-35.107,11.579 -208.763,69.489 -250.657,95.668c-10.234,6.397 -8.987,15.517 -8.365,18.151c2.972,12.531 6.491,27.938 263.824,59.154c106.814,12.951 214.281,25.293 241.373,27.871c24.939,27.836 50.001,47.158 68.148,78.455c8.687,14.983 11.385,47.462 12.104,54.998c1.544,26.898 -70.855,244.158 -137.644,429.649c-2.429,6.752 1.023,14.199 7.75,16.702c1.504,0.567 3.041,0.829 4.565,0.829c5.263,0 10.217,-3.2 12.215,-8.401c-0,-0 158.364,-397.504 153.502,-440.038c-2.106,-18.425 -12.632,-65.806 -20.709,-77.574c-16.358,-23.839 -65.044,-75.241 -65.044,-75.241c18.522,-13.785 32.493,-25.53 33.327,-26.226c5.535,-4.638 9.248,-9.429 4.607,-14.964c-4.623,-5.535 -22.993,0.908 -28.551,5.524c-0.233,0.2 -45.146,22.559 -46.358,26.7c-147.108,-13.875 -303.649,-32.171 -397.009,-47.787l419.246,-21.029c1.023,-0.053 2.004,-0.422 2.802,-1.051l24.935,-19.737c2.113,-1.67 2.486,-4.726 0.834,-6.85l-10.192,-13.172c-1.385,-1.816 -3.825,-2.392 -5.922,-1.461l-19.845,9.065l-471.222,40.1c0,0 3.507,-5.775 3.994,-5.5c68.634,-30.94 220.537,-80.304 222.341,-80.9c3.742,-1.219 6.738,-4.063 8.148,-7.738l22.859,-59.399c23.778,-4.555 55.14,-8.993 63.892,-4.634c18.308,9.165 18.328,20.244 18.351,30.97c0.007,4.031 0.014,7.837 0.991,11.437c1.125,4.127 3.798,7.159 7.948,9.019c3.466,1.551 7.749,2.191 12.469,2.191c19.9,0 47.485,-11.422 53.324,-14.344c8.777,-4.395 11.703,-9.676 13.835,-13.536c3.857,-6.963 5.014,-9.023 50.147,13.536c52.45,26.232 130.871,-9.729 131.661,-10.093c0.454,-0.212 0.789,-0.622 0.904,-1.108c0.269,-1.153 6.553,-28.549 -6.851,-49.433c-7.007,-10.927 -18.121,-17.978 -33.035,-20.964c-16.476,-3.254 -30.97,-0.477 -43.07,8.367c-24.976,18.287 -32.269,56.34 -33.853,66.875c-7.023,-5.134 -28.785,-23.142 -26.488,-47.305c2.736,-28.659 97.067,-66.014 98.021,-66.378c0.408,-0.168 0.736,-0.489 0.908,-0.887c0.171,-0.399 0.175,-0.853 0.01,-1.263l-18.861,-46.024l48.46,24.23c0.451,0.244 1,0.244 1.454,-0c0.99,-0.487 24.395,-12.229 37.341,-30.936c6.383,-9.224 28.332,-21.589 48.292,-31.498c1.928,0.662 4.136,1.367 6.931,2.164c0.979,0.281 100.547,30.95 158.441,118.47c101.666,153.7 105.487,293.096 101.666,346.097c-3.251,45.126 -69.351,373.791 -106.019,544.504c-1.524,7.06 2.977,14.022 10.042,15.538c0.931,0.2 1.855,0.3 2.76,0.3c6.04,-0 11.469,-4.206 12.787,-10.349c4.355,-20.255 106.609,-496.864 106.609,-549.993c0,-54.78 0,-200.277 -106.005,-360.531" style="fill:#659979;fill-rule:nonzero;"/></g></svg>