<svg xmlns="http://www.w3.org/2000/svg" xml:space="preserve" style="fill-rule:evenodd;clip-rule:evenodd;stroke-linecap:round;stroke-linejoin:round;stroke-miterlimit:1.5" viewBox="0 0 134 134"><circle cx="67" cy="66.5" r="66.5" style="fill:#f9ebc3"/><path d="M125.012 133.415H8.637a8.48 8.48 0 0 1-8.479-8.479V80.907a8.48 8.48 0 0 1 8.479-8.479h116.375a8.48 8.48 0 0 1 8.479 8.479v44.029a8.48 8.48 0 0 1-8.479 8.479" style="fill:#39574b;fill-rule:nonzero"/><path d="M.5 72h133v53H.5z" style="fill:#39574b;stroke:#39574b;stroke-width:1px"/><path d="M38.159 45.775c.4-.13.725-.438.875-.83l2.454-6.379c2.55-.487 5.917-.962 6.859-.496 1.962.984 1.966 2.175 1.97 3.325 0 .434 0 .842.105 1.225.12.446.408.771.854.971.371.167.829.234 1.337.234 2.138 0 5.096-1.225 5.725-1.538.942-.471 1.254-1.037 1.484-1.454.416-.746.537-.967 5.383 1.454 5.629 2.817 14.046-1.046 14.133-1.083a.18.18 0 0 0 .096-.121c.029-.121.704-3.063-.733-5.304-.754-1.175-1.946-1.929-3.546-2.25-1.771-.35-3.325-.054-4.625.896-2.679 1.962-3.463 6.05-3.633 7.179-.755-.55-3.092-2.484-2.842-5.079.292-3.075 10.417-7.084 10.521-7.125a.18.18 0 0 0 .096-.092.17.17 0 0 0 0-.138l-2.021-4.941 5.2 2.604c.05.025.108.025.154 0 .108-.054 2.621-1.317 4.008-3.321.688-.992 3.042-2.321 5.188-3.383.204.071.441.146.741.233.105.029 10.792 3.321 17.009 12.717 4.608 6.971 7.333 13.654 8.925 19.496h-.004a59.3 59.3 0 0 1 1.908 10.7q.08.973.121 1.866l.012.329c.025.525.034 1.021.038 1.5a38 38 0 0 1-.013 1.625c-.004.109-.004.23-.008.334a34 34 0 0 1-.067 1.3q-.018.224-.05.529a6 6 0 0 1-.033.246l-.054.45c-.017.104-.034.229-.05.341-.025.167-.046.325-.075.505-.021.141-.046.3-.067.45-.029.179-.054.354-.087.545-.025.163-.055.346-.084.521l-.1.613c-.033.183-.066.379-.096.571q-.06.342-.12.704c-.038.2-.071.408-.109.616-.046.25-.087.5-.133.759l-.125.683q-.069.412-.15.838c-.042.237-.088.483-.129.729-.054.279-.104.558-.159.846-.045.27-.1.545-.15.825-.054.291-.108.583-.166.887-.054.296-.113.6-.167.908-.054.271-.104.546-.158.821q-.095.519-.196 1.05-.077.394-.154.8-.101.544-.209 1.1-.08.425-.166.854c-.071.375-.146.755-.217 1.138l-.162.842c-.075.387-.155.779-.23 1.175l-.175.9c-.079.404-.158.808-.241 1.22l-.163.842c-.087.429-.171.854-.254 1.288l-.175.891c-.083.409-.162.821-.246 1.234l-.2 1.008q-.124.605-.241 1.217-.095.456-.184.912l-.262 1.313q-.08.381-.154.762-.158.768-.309 1.542c-.021.091-.037.183-.058.275l-.388 1.925-.05.241a2088 2088 0 0 1-3.383 16.392 3 3 0 0 1-.033.167l-.771 3.646H59.517q.015-.024.03-.055s.416-1.045 1.116-2.82l.117-.3c.254-.65.542-1.375.858-2.188.034-.079.067-.171.1-.25l.479-1.233c4.192-10.742 12.617-32.796 13.7-39.113q.01-.054.017-.108.05-.318.075-.579c.004-.05.013-.104.017-.15a3 3 0 0 0 0-.488v-.004c-.138-1.204-.609-3.55-1.154-5.492-.03-.116-.063-.225-.096-.337a29 29 0 0 0-.238-.771c-.25-.762-.5-1.387-.737-1.729a30 30 0 0 0-1.538-1.988q-.413-.498-.858-1.016-.29-.338-.583-.675c-1.959-2.242-4-4.396-4-4.396a121 121 0 0 0 1.908-1.463c.046-.037.087-.07.133-.104a66 66 0 0 0 1.517-1.233c.004-.004.017-.013.017-.017.075-.062.145-.121.212-.187q.005.001.004-.004.176-.164.3-.334c.034-.046.059-.087.084-.133.054-.1.1-.204.116-.308.025-.205-.033-.417-.221-.638-.125-.15-.341-.217-.604-.229-.45-.017-1.029.133-1.537.329-.384.154-.729.333-.925.492 0 .004-.134.071-.334.171-.487.25-1.437.737-2.362 1.237-.375.204-.742.408-1.071.6-.667.392-1.167.721-1.208.858a930 930 0 0 1-12.229-1.229c-11.742-1.25-22.938-2.654-30.384-3.9l23.079-1.158 21.921-1.1c.042 0 .075-.029.117-.042.062-.021.133-.029.183-.071l1.071-.845.979-.775.629-.496a.53.53 0 0 0 .088-.738l-1.092-1.412a.53.53 0 0 0-.637-.159l-2.129.975-21.488 1.83-29.096 2.475.063-.096c.087-.146.25-.392.325-.459.012-.012.037-.041.041-.037l.013-.004q.43-.195.9-.396c.083-.038.167-.071.254-.108q.425-.182.875-.371a161 161 0 0 1 2.492-1c8.029-3.129 19.175-6.75 19.333-6.804" style="fill:#fff;fill-rule:nonzero"/><circle cx="73" cy="38.5" r="5.5" style="fill:#fff;stroke:#fff;stroke-width:1px"/><path d="M69.471 40.519s.6-4.8 2.7-4.8c2.104 0 1.541 3.684 1.541 3.684zm-31.313 5.254c.404-.129.725-.433.875-.829l2.454-6.375c2.555-.491 5.917-.966 6.859-.5 1.966.984 1.966 2.175 1.971 3.325 0 .434 0 .842.104 1.229.121.442.408.767.854.967.371.167.833.238 1.337.238 2.138 0 5.096-1.23 5.725-1.542.942-.471 1.255-1.038 1.484-1.454.416-.746.541-.967 5.383 1.454 5.629 2.817 14.05-1.046 14.133-1.083a.17.17 0 0 0 .096-.121c.029-.121.704-3.063-.733-5.304-.754-1.171-1.946-1.93-3.546-2.25-1.771-.35-3.325-.05-4.625.895-2.679 1.963-3.462 6.05-3.633 7.18-.754-.55-3.088-2.484-2.842-5.075.292-3.08 10.417-7.088 10.521-7.125a.2.2 0 0 0 .096-.096.17.17 0 0 0 .004-.138l-2.025-4.937 5.2 2.6c.05.025.108.025.158 0 .104-.054 2.617-1.313 4.009-3.321.683-.992 3.037-2.317 5.183-3.383.204.07.442.15.742.233.104.029 10.791 3.321 17.008 12.717 4.608 6.97 7.333 13.658 8.925 19.495a60 60 0 0 1 1.892 10.525l.012.175c.054.65.092 1.275.121 1.867l.017.329q.028.788.033 1.5a29 29 0 0 1-.013 1.625c-.004.109-.004.229-.008.338a32 32 0 0 1-.067 1.296q-.018.227-.05.529c-.008.075-.02.166-.033.25-.017.141-.033.283-.054.446-.017.104-.033.229-.05.345-.025.163-.046.321-.071.5-.021.142-.046.3-.071.45-.029.18-.054.355-.083.546l-.088.525c-.033.2-.062.396-.1.609-.029.183-.062.379-.095.57-.042.234-.08.463-.121.709-.034.196-.071.408-.109.612-.041.25-.087.5-.133.763q-.057.332-.121.683c-.05.275-.1.55-.15.838-.046.233-.087.479-.133.725l-.154.845q-.077.406-.154.825-.082.438-.163.888c-.058.3-.112.6-.171.908q-.08.407-.154.825-.1.514-.2 1.046-.074.4-.154.8l-.208 1.1q-.081.424-.167.854c-.071.379-.142.754-.217 1.138l-.162.841-.229 1.175-.175.9c-.08.405-.159.809-.238 1.221q-.086.42-.167.846l-.254 1.283-.175.892c-.083.408-.162.821-.246 1.233l-.2 1.009c-.079.408-.162.812-.241 1.216-.063.305-.121.609-.184.913l-.262 1.312c-.05.255-.104.509-.154.763-.104.512-.204 1.025-.309 1.542l-.058.279-.387 1.921-.05.245a2398 2398 0 0 1-3.38 16.388l-.037.167c-.267 1.262-.521 2.479-.771 3.645v.005H59.517c.008-.021.025-.038.033-.059 0 0 .412-1.041 1.112-2.821.038-.091.08-.2.117-.295.258-.655.542-1.375.858-2.192.034-.079.067-.171.1-.25l.48-1.229c4.191-10.746 12.616-32.8 13.7-39.113.008-.041.012-.075.016-.112q.057-.318.075-.579.012-.075.017-.15a2.7 2.7 0 0 0 0-.488v-.004c-.138-1.2-.608-3.55-1.15-5.492l-.1-.337a15 15 0 0 0-.238-.771c-.245-.763-.5-1.388-.733-1.725-.379-.554-.925-1.246-1.542-1.992-.275-.329-.558-.671-.858-1.016q-.288-.338-.583-.675c-1.959-2.238-4-4.396-4-4.396l.179-.134c.642-.483 1.229-.937 1.729-1.329q.067-.055.133-.104c.867-.687 1.434-1.162 1.521-1.233a5 5 0 0 0 .225-.2l.004-.004q.181-.169.3-.338c.034-.046.059-.087.084-.133.058-.1.1-.2.116-.309.03-.204-.033-.412-.22-.637-.125-.15-.342-.217-.605-.225-.45-.021-1.029.129-1.537.329-.383.15-.729.329-.921.488-.004.004-.133.07-.337.175-.484.245-1.438.733-2.363 1.237-.375.2-.742.408-1.071.6-.666.388-1.166.717-1.208.854a796 796 0 0 1-5.954-.579 930 930 0 0 1-6.275-.646c-11.738-1.254-22.938-2.658-30.384-3.904l23.08-1.158 21.92-1.1c.042 0 .075-.029.117-.042.063-.021.133-.029.183-.071l1.071-.846.984-.775.625-.495a.53.53 0 0 0 .087-.738l-1.092-1.412a.53.53 0 0 0-.637-.159l-2.129.975-21.488 1.829-29.096 2.475.063-.095c.092-.146.25-.388.325-.459.017-.012.037-.037.042-.037q.006.001.012-.004.432-.196.9-.396c.083-.038.171-.071.254-.109q.425-.18.875-.366c.042-.017.075-.034.117-.05.746-.309 1.546-.629 2.375-.95 8.029-3.134 19.175-6.754 19.333-6.809m70.771 83.117c2.163-14.217 13.325-55.25 8.775-75.496-1.562-6.279-5.379-14.262-10.408-21.866-5.204-7.867-12.921-11.68-16.438-13.088l.25-.108a.17.17 0 0 0 .1-.113c.025-.096.65-2.308.65-3.241 0-.967-3.133-1.7-4.2-1.921l-2.733-3.371c-.042-.058-.113-.075-.179-.063l-3.054.83-4.2-5.125a.18.18 0 0 0-.155-.063.16.16 0 0 0-.133.092l-3.258 5.862c-.729-.912-3.304-4.033-4.484-4.158a.55.55 0 0 0-.429.117c-.746.616-1.346 5.529-1.612 8.058l-.25-1.663c-.475-3.175-6.696-3.45-6.963-3.462-.066-.017-.116.029-.15.083a.18.18 0 0 0-.012.171l1.579 3.279-10.408.929a.17.17 0 0 0-.13.08.17.17 0 0 0-.02.15l1.683 5.087c-.854-1.071-2.413-2.883-3.608-3.533-1.734-.938-7.305 3.004-7.934 3.458a.18.18 0 0 0-.066.188l.737 2.97-3.171 2.5a.17.17 0 0 0-.033.242l2.133 2.775-3.571 1.929a.17.17 0 0 0-.087.117c-.013.05 0 .104.029.142l2.446 3.233-.538 3.162c-.029.055-.075.096-.095.155l-2.342 6.083c-3.367 1.112-21.025 7.254-25.008 9.262-3.98 2.009-1.221 6.159 1.395 6.521 2.621.363 50.259 6.384 51.996 7.175 1.742.788 5.054 5.313 5.929 6.559.875 1.245 1.567 5.383 1.734 7.116.162 1.734-17.3 48.946-17.3 48.946z" style="fill:#39574b;fill-rule:nonzero"/><path d="M68.6 48.138c.421.141 1.204.625 1.304.695.83 1.342 1.334 2.459 2.259 2.459q.406 0 .841-.159l.5-.187-.041-.529c-.009-.079-.188-1.938-1.934-3.204-.75-.546-3.212-1.771-4.57-1.43-.542.138-.805.471-.925.725a1.12 1.12 0 0 0-.03.938c.309.733 1.509.325 2.596.692m-25.555-4.385c.009 0 .013 0 .021.004q.374.013.642-.05c.196.013.441.025.754.046q.168.012.329.012c2.117 0 2.442-1.475 2.442-1.491a.17.17 0 0 0-.025-.134c-.054-.075-1.296-1.862-2.771-1.529-.767.171-.608.904-.479 1.496.091.425.187.863-.004 1.088a.56.56 0 0 1-.275.162c-.925-.05-.93-.008-.95.154-.021.184.183.217.316.242M86.029 54.14a.35.35 0 0 0-.046.467.36.36 0 0 0 .283.142.34.34 0 0 0 .175-.05c.304-.175 7.392-4.379 8.717-7.546.916-2.183 1.937-5.613 1.946-5.646a.35.35 0 0 0-.492-.412l-3.5 1.783-2.971-2.796a.35.35 0 0 0-.45-.025.35.35 0 0 0-.104.438c.029.054 2.708 5.458 1.433 7.812-1.337 2.463-4.954 5.8-4.991 5.833" style="fill:#39574b;fill-rule:nonzero"/><path d="M83.408 52.485c.225 0 .641-.204 1.554-.996.65-.566 3.833-3.454 2.667-5.037-1.167-1.584-.275-2.463-.242-2.496a.348.348 0 0 0-.392-.571c-.121.063-2.954 1.533-2.816 3.433.037.555.216.946.375 1.288.333.721.575 1.242-1.113 3.254-.246.296-.587.704-.287 1 .062.058.129.125.254.125m18.598-.053a.585.585 0 0 0-.067.737l3.105 4.584a.57.57 0 0 0 .462.258h.021a.59.59 0 0 0 .462-.225l2.605-3.367a.58.58 0 0 0 .029-.675.58.58 0 0 0-.625-.254l-2.567.6-2.692-1.742a.58.58 0 0 0-.733.084M80.349 77.223a.58.58 0 0 0-.208.595l1.191 5.059c.05.225.234.4.459.441a.57.57 0 0 0 .587-.241l3.504-5.034a.58.58 0 0 0-.633-.895l-2.821.775-1.45-.759a.59.59 0 0 0-.629.059m17.077-24.834-2.462 1.296-2.375-.15c-.259-.037-.492.133-.584.375a.58.58 0 0 0 .188.667l2.725 2.121a.6.6 0 0 0 .358.12q.041.001.083-.004a.6.6 0 0 0 .392-.233l2.421-3.329a.59.59 0 0 0-.033-.729.58.58 0 0 0-.713-.134M86.473 69.803a.586.586 0 0 0-.579.98l4.183 4.037a.57.57 0 0 0 .404.167c.017 0 .038 0 .054-.004a.6.6 0 0 0 .425-.246l2.804-3.992a.59.59 0 0 0-.012-.696.6.6 0 0 0-.667-.191l-2.921 1.083zm8.338 42.998-2.921 1.079-3.691-1.133a.584.584 0 0 0-.58.975l4.184 4.041a.58.58 0 0 0 .404.163h.058a.6.6 0 0 0 .421-.246l2.808-3.996a.586.586 0 0 0-.683-.883M78.602 68.308a.59.59 0 0 0 .487.258h.021a.58.58 0 0 0 .488-.296l2.725-4.842a.59.59 0 0 0-.063-.662.59.59 0 0 0-.646-.175l-3.241 1.167-2.092-.855a.583.583 0 0 0-.704.867zm22.592 13.863-3.242 1.167-2.088-.854a.585.585 0 0 0-.675.171.58.58 0 0 0-.033.691l3.025 4.542a.59.59 0 0 0 .488.258h.02a.59.59 0 0 0 .488-.296l2.725-4.841a.59.59 0 0 0-.063-.667.59.59 0 0 0-.645-.171m-21.187 19.208-3.238 1.166-2.092-.854a.583.583 0 0 0-.708.863l3.025 4.541a.58.58 0 0 0 .488.259h.02a.59.59 0 0 0 .488-.296l2.725-4.842a.59.59 0 0 0-.063-.666.59.59 0 0 0-.645-.171m15.08-39.071a.59.59 0 0 0 .058.733l3.213 3.371a.6.6 0 0 0 .425.179c.033 0 .071 0 .108-.008a.58.58 0 0 0 .433-.359l1.284-3.208a.586.586 0 0 0-.804-.742l-1.592.804-2.421-.983a.58.58 0 0 0-.704.213m9.731 8.627a.58.58 0 0 0-.692.209.59.59 0 0 0 .042.725l2.979 3.358a.58.58 0 0 0 .437.196h.055a.58.58 0 0 0 .445-.283l1.93-3.267c.133-.221.1-.5-.071-.692a.59.59 0 0 0-.684-.129l-1.866.888zm-4.424-32.689a.5.5 0 0 0 .292.092q.05-.002.1-.009a.5.5 0 0 0 .329-.229l1.75-2.787c.125-.2.1-.455-.063-.621a.51.51 0 0 0-.616-.096l-1.584.875-3.375-.617a.52.52 0 0 0-.562.309.51.51 0 0 0 .179.612zm-11.613-7.875 4.2 1.042a.5.5 0 0 0 .396-.063.5.5 0 0 0 .225-.329l.641-3.229a.514.514 0 0 0-.279-.558.52.52 0 0 0-.612.129l-1.167 1.383-3.375.629a.52.52 0 0 0-.417.488.51.51 0 0 0 .388.508" style="fill:#39574b;fill-rule:nonzero"/></svg>