<?xml version="1.0" encoding="UTF-8" standalone="no"?><!DOCTYPE svg PUBLIC "-//W3C//DTD SVG 1.1//EN" "http://www.w3.org/Graphics/SVG/1.1/DTD/svg11.dtd"><svg width="100%" height="100%" viewBox="0 0 807 720" version="1.1" xmlns="http://www.w3.org/2000/svg" xmlns:xlink="http://www.w3.org/1999/xlink" xml:space="preserve" xmlns:serif="http://www.serif.com/" style="fill-rule:evenodd;clip-rule:evenodd;stroke-linejoin:round;stroke-miterlimit:2;"><path d="M747.188,719.66l-688.205,-0c-32.575,-0 -58.983,-26.408 -58.983,-58.983l-0,-434.996c-0,-32.575 26.408,-58.984 58.983,-58.984l675.705,0c39.316,0 71.483,32.167 71.483,71.484l-0,422.496c-0,32.575 -26.409,58.983 -58.984,58.983" style="fill:#39574b;fill-rule:nonzero;"/><path d="M54.878,353.629l-0,-99.787l49.621,-0l-0,19.295l-28.671,0l-0,18.471l28.671,0l-0,19.296l-28.671,0l-0,23.429l28.671,0l-0,19.296l-49.621,0Z" style="fill:#f9ebc3;fill-rule:nonzero;"/><path d="M156.613,273.138l-0,80.492l-20.95,-0l-0,-80.492l-17.088,0l0,-19.296l55.13,0l-0,19.296l-17.092,0Z" style="fill:#f9ebc3;fill-rule:nonzero;"/><path d="M186.815,353.629l0,-99.787l20.95,-0l0,37.766l24.946,0l0,-37.766l20.95,-0l0,99.787l-20.95,0l0,-42.725l-24.946,0l0,42.725l-20.95,0Z" style="fill:#f9ebc3;fill-rule:nonzero;"/><rect x="272.429" y="253.841" width="20.95" height="99.787" style="fill:#f9ebc3;"/><path d="M360.372,293.395c-0.55,-17.775 -5.787,-21.909 -13.783,-21.909c-9.646,0 -17.092,8.542 -17.092,32.25c0,23.704 7.446,32.25 17.092,32.25c10.887,0 13.233,-10.475 13.783,-21.087l21.504,-0c-0.141,22.6 -12.958,40.383 -36.941,40.383c-22.33,0 -36.938,-16.817 -36.938,-51.546c0,-34.737 14.608,-51.554 36.938,-51.554c24.67,0 37.212,18.063 36.941,41.213l-21.504,-0Z" style="fill:#f9ebc3;fill-rule:nonzero;"/><path d="M427.239,283.06l-0.275,-0l-6.338,32.25l12.954,-0l-6.341,-32.25Zm38.179,70.571l-21.225,-0l-5.238,-19.025l-23.433,-0l-4.958,19.025l-21.225,-0l27.837,-99.788l19.296,0l28.946,99.788Z" style="fill:#f9ebc3;fill-rule:nonzero;"/><path d="M476.737,253.842l20.95,0l0,80.492l26.742,0l-0,19.296l-47.692,-0l0,-99.788Z" style="fill:#f9ebc3;fill-rule:nonzero;"/><path d="M702.67,97.627c-21.812,-32.975 -59.329,-44.53 -59.695,-44.638c-1.055,-0.3 -1.888,-0.567 -2.613,-0.812c-7.521,3.733 -15.787,8.391 -18.196,11.866c-4.875,7.046 -13.696,11.471 -14.066,11.654c-0.171,0.092 -0.38,0.092 -0.55,0l-18.259,-9.129l7.109,17.342c0.062,0.154 0.058,0.325 -0.005,0.475c-0.066,0.15 -0.187,0.271 -0.341,0.333c-0.359,0.138 -35.9,14.213 -36.934,25.013c-0.866,9.1 7.334,15.887 9.98,17.821c0.595,-3.971 3.345,-18.309 12.758,-25.196c4.558,-3.334 10.017,-4.379 16.225,-3.154c5.621,1.125 9.808,3.783 12.446,7.9c5.05,7.87 2.683,18.191 2.583,18.625c-0.046,0.183 -0.171,0.337 -0.342,0.416c-0.295,0.138 -29.845,13.688 -49.604,3.804c-17.008,-8.5 -17.441,-7.725 -18.896,-5.1c-0.804,1.455 -1.904,3.442 -5.212,5.1c-2.2,1.1 -12.592,5.405 -20.092,5.405c-1.779,-0 -3.391,-0.242 -4.696,-0.825c-1.566,-0.7 -2.57,-1.846 -2.995,-3.4c-0.371,-1.355 -0.371,-2.788 -0.375,-4.309c-0.009,-4.041 -0.017,-8.216 -6.913,-11.666c-3.3,-1.646 -15.117,0.029 -24.075,1.745l-8.612,22.38c-0.53,1.383 -1.659,2.454 -3.067,2.916c-0.683,0.221 -57.917,18.821 -83.775,30.479c-0.183,-0.104 -1.504,2.071 -1.504,2.071l177.546,-15.108l7.475,-3.413c0.791,-0.35 1.708,-0.133 2.233,0.55l3.837,4.963c0.625,0.8 0.484,1.95 -0.312,2.579l-9.396,7.438c-0.3,0.237 -0.671,0.375 -1.054,0.395l-157.963,7.921c35.175,5.888 94.159,12.779 149.584,18.009c0.454,-1.563 17.379,-9.988 17.466,-10.063c2.092,-1.737 9.017,-4.167 10.759,-2.079c1.746,2.083 0.35,3.892 -1.738,5.637c-0.312,0.263 -5.579,4.688 -12.558,9.88c-0,-0 18.346,19.366 24.508,28.35c3.042,4.433 7.009,22.287 7.804,29.229c1.459,12.766 -36.091,110.35 -51.429,149.533l156.534,0c14.075,-67.083 33.641,-165.512 34.725,-180.537c1.441,-19.971 -0,-72.492 -38.305,-130.4" style="fill:#f9ebc3;fill-rule:nonzero;"/><path d="M587.618,106.895c-7.379,-0 -9.479,16.85 -9.479,16.85l14.891,-3.925c0,-0 1.967,-12.925 -5.412,-12.925" style="fill:#f9ebc3;fill-rule:nonzero;"/><path d="M172.322,560.145l0,-35.571l27.383,19.2l0,35.292l-67.754,-0l0,13.829l-27.383,-0l-0,-32.75l67.754,-0Zm12.988,-87.513l-0,-35.57l27.383,19.191l-0,35.292l-80.742,-0l0,25.692l-27.383,-0l-0,-44.605l80.742,0Zm2.537,163.175l0,-35.575l27.388,19.2l-0,35.288l-123.092,-0l-27.1,-18.913l122.804,0Z" style="fill:#b7a151;fill-rule:nonzero;"/><path d="M470.669,437.062l27.383,18.913l15.813,198.745l-40.942,0l-27.1,-18.912l40.654,-0l-15.808,-198.746Z" style="fill:#b7a151;fill-rule:nonzero;"/><path d="M611.061,635.243c8.183,2.821 18.912,3.95 28.791,3.95c47.434,0 87.238,-28.512 87.238,-91.187l-0,-110.942l27.383,19.192l0,111.512c0,62.109 -39.521,90.338 -86.387,90.338c-16.938,-0 -28.513,-3.671 -40.654,-11.854l-16.371,-11.009Zm22.583,-39.808c-17.221,-2.542 -31.904,-16.371 -31.904,-44.888l-0,-113.483l27.387,19.192l0,114.054c0,9.879 1.413,18.354 4.517,25.125" style="fill:#b7a151;fill-rule:nonzero;"/><path d="M431.505,576.59l-19.275,27.88l-18.067,-0l-27.1,-18.913l15.242,0l45.25,-66.837l3.95,57.87Zm-118.93,-136.708l25.125,20.325l37.25,55.9l-5.366,8.467l-57.009,-84.692Zm-8.466,195.925l7.304,-117.071l26.254,38.954l-6.175,97.03l-40.937,-0l-27.1,-18.913l40.654,0Z" style="fill:#b7a151;fill-rule:nonzero;"/><path d="M587.581,161.565c-3.25,-0 -5.008,-3.933 -7.917,-8.633c-0.35,-0.246 -3.1,-1.946 -4.583,-2.446c-3.813,-1.284 -8.021,0.15 -9.113,-2.429c-0.445,-1.055 -0.408,-2.221 0.105,-3.288c0.429,-0.892 1.337,-2.058 3.25,-2.542c4.762,-1.204 13.408,3.1 16.045,5.021c6.125,4.446 6.755,10.959 6.775,11.234l0.159,1.866l-1.754,0.646c-1.03,0.379 -2.013,0.571 -2.967,0.571" style="fill:#39574b;fill-rule:nonzero;"/><path d="M491.506,135.141c-0.371,-0 -0.75,-0.013 -1.15,-0.042c-1.091,-0.071 -1.958,-0.121 -2.65,-0.158c-0.621,0.146 -1.366,0.204 -2.246,0.162c-0.029,-0.004 -0.054,-0.004 -0.079,-0.008c-0.471,-0.083 -1.179,-0.204 -1.104,-0.85c0.067,-0.571 0.088,-0.717 3.329,-0.546c0.434,-0.125 0.754,-0.312 0.967,-0.562c0.667,-0.796 0.333,-2.33 0.008,-3.817c-0.45,-2.071 -1.008,-4.65 1.684,-5.246c5.183,-1.175 9.541,5.092 9.725,5.358c0.095,0.138 0.129,0.309 0.095,0.471c-0.008,0.054 -1.141,5.238 -8.579,5.238" style="fill:#39574b;fill-rule:nonzero;"/><path d="M637.087,173.691c-0.375,0 -0.746,-0.175 -0.988,-0.5c-0.371,-0.504 -0.304,-1.204 0.159,-1.633c0.129,-0.117 12.82,-11.829 17.512,-20.471c4.488,-8.262 -4.925,-27.237 -5.021,-27.425c-0.266,-0.533 -0.112,-1.179 0.363,-1.537c0.479,-0.35 1.141,-0.321 1.575,0.091l10.437,9.813l12.275,-6.263c0.434,-0.221 0.967,-0.162 1.342,0.15c0.379,0.313 0.529,0.821 0.392,1.292c-0.034,0.121 -3.613,12.158 -6.83,19.825c-4.658,11.112 -29.537,25.867 -30.595,26.487c-0.192,0.113 -0.409,0.171 -0.621,0.171" style="fill:#39574b;fill-rule:nonzero;"/><path d="M627.057,165.745c-0.446,0 -0.675,-0.229 -0.887,-0.437c-1.059,-1.042 0.137,-2.467 1.008,-3.513c5.917,-7.062 5.075,-8.891 3.904,-11.416c-0.554,-1.209 -1.183,-2.575 -1.325,-4.521c-0.475,-6.679 9.463,-11.838 9.888,-12.054c0.545,-0.275 1.216,-0.117 1.566,0.391c0.35,0.505 0.275,1.192 -0.179,1.605c-0.125,0.12 -3.254,3.216 0.838,8.77c4.091,5.55 -7.071,15.696 -9.35,17.675c-3.213,2.788 -4.675,3.5 -5.463,3.5" style="fill:#39574b;fill-rule:nonzero;"/><path d="M704.695,185.141l-0.067,-0c-0.654,-0.021 -1.262,-0.359 -1.633,-0.9l-10.892,-16.096c-0.546,-0.808 -0.45,-1.888 0.234,-2.588c0.683,-0.704 1.762,-0.816 2.583,-0.283l9.437,6.108l9.017,-2.104c0.846,-0.204 1.721,0.154 2.192,0.888c0.471,0.733 0.429,1.679 -0.1,2.366l-9.146,11.817c-0.392,0.5 -0.992,0.792 -1.625,0.792" style="fill:#39574b;fill-rule:nonzero;"/><path d="M621.764,274.011c-0.125,-0 -0.254,-0.013 -0.384,-0.038c-0.795,-0.15 -1.429,-0.754 -1.612,-1.546l-4.183,-17.762c-0.184,-0.779 0.104,-1.6 0.737,-2.088c0.633,-0.491 1.496,-0.575 2.208,-0.2l5.088,2.655l9.9,-2.725c0.837,-0.209 1.721,0.087 2.221,0.795c0.496,0.709 0.5,1.65 0.008,2.355l-12.3,17.675c-0.387,0.558 -1.021,0.879 -1.683,0.879" style="fill:#39574b;fill-rule:nonzero;"/><path d="M668.719,180.96c-0.454,0 -0.896,-0.15 -1.259,-0.433l-9.562,-7.433c-0.713,-0.554 -0.979,-1.504 -0.658,-2.346c0.316,-0.842 1.141,-1.454 2.045,-1.321l8.33,0.533l8.645,-4.55c0.838,-0.454 1.884,-0.254 2.509,0.471c0.625,0.721 0.671,1.779 0.108,2.55l-8.5,11.688c-0.325,0.446 -0.821,0.746 -1.371,0.821c-0.096,0.016 -0.191,0.02 -0.287,0.02" style="fill:#39574b;fill-rule:nonzero;"/><path d="M651.887,244.722c-0.53,0 -1.042,-0.204 -1.425,-0.575l-14.675,-14.179c-0.684,-0.654 -0.825,-1.696 -0.342,-2.517c0.483,-0.816 1.475,-1.183 2.371,-0.916l12.958,3.983l10.25,-3.788c0.838,-0.3 1.788,-0.041 2.338,0.671c0.545,0.717 0.57,1.7 0.054,2.434l-9.85,14.016c-0.346,0.488 -0.888,0.804 -1.484,0.863c-0.066,0.008 -0.133,0.008 -0.195,0.008" style="fill:#39574b;fill-rule:nonzero;"/><path d="M657.946,395.451c-0.529,0 -1.041,-0.204 -1.425,-0.575l-14.675,-14.179c-0.683,-0.654 -0.825,-1.7 -0.341,-2.517c0.483,-0.82 1.475,-1.195 2.37,-0.916l12.959,3.987l10.25,-3.791c0.837,-0.309 1.787,-0.038 2.337,0.67c0.546,0.717 0.571,1.7 0.054,2.434l-9.85,14.016c-0.345,0.488 -0.887,0.805 -1.483,0.863c-0.067,0.004 -0.133,0.008 -0.196,0.008" style="fill:#39574b;fill-rule:nonzero;"/><path d="M611.894,222.197c-0.684,-0 -1.325,-0.342 -1.704,-0.913l-10.625,-15.933c-0.5,-0.754 -0.455,-1.742 0.116,-2.438c0.571,-0.696 1.534,-0.937 2.367,-0.604l7.337,3.004l11.375,-4.096c0.805,-0.283 1.705,-0.05 2.263,0.609c0.55,0.654 0.642,1.579 0.221,2.329l-9.563,16.996c-0.35,0.621 -0.996,1.016 -1.712,1.046l-0.075,-0Z" style="fill:#39574b;fill-rule:nonzero;"/><path d="M680.621,290.924c-0.683,-0 -1.325,-0.342 -1.704,-0.913l-10.625,-15.933c-0.5,-0.754 -0.454,-1.742 0.116,-2.438c0.571,-0.7 1.53,-0.933 2.367,-0.604l7.338,3.004l11.375,-4.095c0.808,-0.292 1.704,-0.046 2.262,0.608c0.55,0.654 0.642,1.579 0.221,2.329l-9.563,16.996c-0.35,0.621 -0.995,1.017 -1.712,1.046l-0.075,-0Z" style="fill:#39574b;fill-rule:nonzero;"/><path d="M606.254,358.343c-0.683,0 -1.325,-0.341 -1.704,-0.912l-10.625,-15.938c-0.5,-0.754 -0.454,-1.741 0.117,-2.437c0.57,-0.696 1.529,-0.942 2.366,-0.596l7.342,3l11.371,-4.096c0.808,-0.283 1.708,-0.05 2.262,0.608c0.55,0.655 0.642,1.584 0.221,2.33l-9.562,16.995c-0.35,0.621 -0.996,1.017 -1.713,1.046l-0.075,0Z" style="fill:#39574b;fill-rule:nonzero;"/><path d="M681.02,215.264c-0.559,-0 -1.096,-0.225 -1.488,-0.634l-11.271,-11.837c-0.666,-0.7 -0.754,-1.771 -0.208,-2.571c0.546,-0.804 1.575,-1.104 2.471,-0.746l8.496,3.459l5.583,-2.825c0.762,-0.384 1.683,-0.255 2.312,0.32c0.63,0.575 0.834,1.484 0.517,2.275l-4.508,11.271c-0.259,0.65 -0.829,1.117 -1.517,1.25c-0.129,0.025 -0.258,0.038 -0.387,0.038" style="fill:#39574b;fill-rule:nonzero;"/><path d="M711.913,246.267c-0.584,-0 -1.146,-0.25 -1.538,-0.688l-10.446,-11.8c-0.629,-0.708 -0.691,-1.758 -0.15,-2.537c0.546,-0.775 1.546,-1.088 2.429,-0.734l9.034,3.525l6.558,-3.121c0.817,-0.395 1.788,-0.2 2.396,0.463c0.608,0.667 0.712,1.654 0.25,2.429l-6.767,11.454c-0.333,0.567 -0.916,0.938 -1.571,1c-0.066,0.004 -0.133,0.009 -0.195,0.009" style="fill:#39574b;fill-rule:nonzero;"/><path d="M687.701,116.09c-0.362,-0 -0.721,-0.113 -1.021,-0.325l-12.462,-8.675c-0.688,-0.479 -0.95,-1.375 -0.629,-2.15c0.321,-0.775 1.129,-1.192 1.971,-1.075l11.858,2.158l5.554,-3.071c0.717,-0.391 1.604,-0.25 2.167,0.334c0.558,0.596 0.646,1.487 0.212,2.179l-6.137,9.787c-0.259,0.413 -0.675,0.7 -1.154,0.8c-0.121,0.025 -0.242,0.038 -0.359,0.038" style="fill:#39574b;fill-rule:nonzero;"/><path d="M661.084,91.841c-0.142,0 -0.287,-0.021 -0.433,-0.054l-14.734,-3.662c-0.816,-0.205 -1.379,-0.946 -1.354,-1.788c0.025,-0.837 0.629,-1.55 1.459,-1.704l11.845,-2.213l4.096,-4.85c0.529,-0.625 1.413,-0.816 2.142,-0.458c0.733,0.354 1.137,1.158 0.979,1.958l-2.246,11.33c-0.096,0.479 -0.383,0.895 -0.796,1.158c-0.291,0.187 -0.62,0.283 -0.958,0.283" style="fill:#39574b;fill-rule:nonzero;"/><path d="M587.618,106.895c7.379,0 5.413,12.925 5.413,12.925l-14.892,3.925c0,0 2.1,-16.85 9.479,-16.85m123.279,-14.708c-18.262,-27.612 -45.345,-40.992 -57.683,-45.946c0.492,-0.212 0.838,-0.358 0.867,-0.371c0.171,-0.07 0.304,-0.216 0.354,-0.4c0.092,-0.329 2.287,-8.095 2.287,-11.379c0,-3.396 -11.008,-5.962 -14.745,-6.737l-9.588,-11.842c-0.158,-0.192 -0.408,-0.262 -0.642,-0.208l-10.708,2.9l-14.75,-17.975c-0.129,-0.159 -0.321,-0.259 -0.533,-0.221c-0.2,0.017 -0.384,0.133 -0.479,0.312l-11.434,20.58c-2.554,-3.2 -11.596,-14.159 -15.733,-14.6c-0.608,-0.046 -1.113,0.079 -1.513,0.408c-2.608,2.171 -4.725,19.408 -5.658,28.287l-0.875,-5.837c-1.671,-11.142 -23.504,-12.104 -24.433,-12.142c-0.238,-0.066 -0.421,0.096 -0.538,0.279c-0.116,0.18 -0.133,0.409 -0.037,0.605l5.541,11.516l-36.529,3.263c-0.187,0.016 -0.362,0.116 -0.462,0.275c-0.104,0.158 -0.129,0.354 -0.071,0.529l5.917,17.854c-3.009,-3.754 -8.475,-10.117 -12.671,-12.404c-6.079,-3.292 -25.638,10.55 -27.846,12.146c-0.204,0.146 -0.3,0.404 -0.238,0.65l2.584,10.425l-11.129,8.775c-0.267,0.208 -0.313,0.591 -0.105,0.858l7.48,9.742l-12.534,6.766c-0.158,0.08 -0.275,0.234 -0.312,0.413c-0.038,0.175 0.004,0.358 0.112,0.5l8.579,11.337l-1.875,11.113c-0.104,0.187 -0.262,0.329 -0.341,0.537l-8.217,21.355c-13.229,4.362 -78.658,26.183 -94.442,36.045c-3.858,2.413 -3.387,5.846 -3.154,6.838c1.121,4.725 2.446,10.529 99.404,22.287c40.246,4.88 80.734,9.534 90.942,10.505c9.396,10.487 18.842,17.766 25.675,29.558c3.275,5.646 4.292,17.883 4.563,20.721c0.583,10.133 -26.696,91.991 -51.859,161.883c-0.916,2.542 0.384,5.35 2.917,6.292c0.567,0.212 1.146,0.312 1.721,0.312c1.983,0 3.85,-1.204 4.604,-3.166c-0,-0 59.667,-149.767 57.833,-165.796c-0.791,-6.942 -4.758,-24.792 -7.8,-29.225c-6.166,-8.984 -24.508,-28.35 -24.508,-28.35c6.979,-5.192 12.242,-9.617 12.558,-9.879c2.084,-1.75 3.484,-3.555 1.734,-5.642c-1.742,-2.083 -8.663,0.346 -10.759,2.083c-0.087,0.075 -17.008,8.5 -17.466,10.059c-55.425,-5.225 -114.405,-12.121 -149.58,-18.005l157.959,-7.925c0.387,-0.016 0.754,-0.158 1.054,-0.395l9.396,-7.434c0.796,-0.629 0.937,-1.779 0.316,-2.583l-3.841,-4.963c-0.521,-0.683 -1.442,-0.9 -2.229,-0.55l-7.48,3.417l-177.541,15.108c-0,0 1.321,-2.175 1.504,-2.075c25.858,-11.654 83.092,-30.254 83.771,-30.479c1.408,-0.458 2.537,-1.529 3.071,-2.916l8.612,-22.38c8.958,-1.716 20.775,-3.387 24.071,-1.745c6.9,3.454 6.908,7.629 6.917,11.67c-0,1.517 0.004,2.95 0.37,4.309c0.425,1.554 1.434,2.696 2.996,3.396c1.304,0.587 2.921,0.829 4.7,0.829c7.496,-0 17.892,-4.304 20.088,-5.409c3.308,-1.654 4.412,-3.641 5.212,-5.1c1.454,-2.62 1.892,-3.395 18.896,5.1c19.763,9.888 49.308,-3.662 49.608,-3.8c0.171,-0.079 0.296,-0.233 0.338,-0.416c0.104,-0.438 2.471,-10.759 -2.579,-18.625c-2.642,-4.117 -6.829,-6.775 -12.446,-7.9c-6.208,-1.225 -11.671,-0.179 -16.229,3.154c-9.409,6.887 -12.159,21.225 -12.754,25.196c-2.646,-1.934 -10.846,-8.721 -9.98,-17.825c1.03,-10.796 36.571,-24.871 36.93,-25.009c0.154,-0.062 0.279,-0.183 0.341,-0.333c0.067,-0.15 0.067,-0.321 0.004,-0.475l-7.104,-17.342l18.259,9.13c0.17,0.091 0.375,0.091 0.545,-0c0.375,-0.184 9.192,-4.609 14.071,-11.659c2.404,-3.475 10.675,-8.133 18.196,-11.866c0.725,0.25 1.558,0.516 2.608,0.816c0.371,0.104 37.884,11.659 59.696,44.638c38.309,57.908 39.746,110.429 38.309,130.4c-1.225,17 -26.13,140.833 -39.946,205.154c-0.575,2.658 1.121,5.283 3.783,5.854c0.35,0.075 0.7,0.113 1.042,0.113c2.275,-0 4.321,-1.584 4.816,-3.9c1.642,-7.634 40.167,-187.205 40.167,-207.221c0,-20.642 0,-75.463 -39.942,-135.842" style="fill:#39574b;fill-rule:nonzero;"/><path d="M172.322,560.145l0,-35.571l27.383,19.2l0,35.292l-67.754,-0l0,13.829l-27.383,-0l-0,-32.75l67.754,-0Zm12.988,-87.513l-0,-35.57l27.383,19.191l-0,35.292l-80.742,-0l0,25.692l-27.383,-0l-0,-44.605l80.742,0Zm2.537,163.175l0,-35.575l27.388,19.2l-0,35.288l-123.092,-0l-27.1,-18.913l122.804,0Z" style="fill:#b7a151;fill-rule:nonzero;"/><path d="M470.669,437.062l27.383,18.913l15.813,198.745l-40.942,0l-27.1,-18.912l40.654,-0l-15.808,-198.746Zm-38.396,138.046l-20.041,29.362l-18.067,0l-27.104,-18.912l15.246,-0l46.012,-68.321l3.954,57.871Zm-119.7,-135.225l25.129,20.325l37.83,57.029l-5.363,8.467l-57.596,-85.821Zm-8.466,195.925l7.908,-118.571l26.25,38.954l-6.775,98.529l-40.933,0l-27.105,-18.912l40.655,-0Z" style="fill:#b7a151;fill-rule:nonzero;"/><path d="M611.061,635.243c8.183,2.821 18.912,3.95 28.791,3.95c47.434,0 87.238,-28.512 87.238,-91.187l-0,-110.942l27.383,19.192l0,111.512c0,62.109 -39.521,90.338 -86.387,90.338c-16.938,-0 -28.513,-3.671 -40.654,-11.854l-16.371,-11.009Zm22.583,-39.808c-17.221,-2.542 -31.904,-16.371 -31.904,-44.888l-0,-113.483l27.387,19.192l0,114.054c0,9.879 1.413,18.354 4.517,25.125" style="fill:#b7a151;fill-rule:nonzero;"/><path d="M172.322,560.145l0,-35.571l27.383,19.2l0,35.292l-67.754,-0l0,13.829l-27.383,-0l-0,-32.75l67.754,-0Zm12.988,-87.513l-0,-35.57l27.383,19.191l-0,35.292l-80.742,-0l0,25.692l-27.383,-0l-0,-44.605l80.742,0Zm2.537,163.175l0,-35.575l27.388,19.2l-0,35.288l-123.092,-0l-27.1,-18.913l122.804,0Z" style="fill:#b7a151;fill-rule:nonzero;"/><path d="M470.669,437.062l27.383,18.913l15.813,198.745l-40.942,0l-27.1,-18.912l40.654,-0l-15.808,-198.746Zm-38.396,138.046l-20.041,29.362l-18.067,0l-27.104,-18.912l15.246,-0l46.012,-68.321l3.954,57.871Zm-119.7,-135.225l25.129,20.325l37.83,57.029l-5.363,8.467l-57.596,-85.821Zm-8.466,195.925l7.908,-118.571l26.25,38.954l-6.775,98.529l-40.933,0l-27.105,-18.912l40.655,-0Z" style="fill:#b7a151;fill-rule:nonzero;"/><path d="M611.061,635.243c8.183,2.821 18.912,3.95 28.791,3.95c47.434,0 87.238,-28.512 87.238,-91.187l-0,-110.942l27.383,19.192l0,111.512c0,62.109 -39.521,90.338 -86.387,90.338c-16.938,-0 -28.513,-3.671 -40.654,-11.854l-16.371,-11.009Zm22.583,-39.808c-17.221,-2.542 -31.904,-16.371 -31.904,-44.888l-0,-113.483l27.387,19.192l0,114.054c0,9.879 1.413,18.354 4.517,25.125" style="fill:#b7a151;fill-rule:nonzero;"/><path d="M722.284,547.282l0,-112.621l-36.875,-0l0,115.171c0,36.312 -21.275,51.629 -44.537,51.629c-23.263,-0 -44.542,-15.317 -44.542,-51.629l-0,-115.171l-36.875,-0l-0,112.621c-0,58.72 37.162,85.383 81.417,85.383c44.254,-0 81.412,-26.663 81.412,-85.383" style="fill:#f0d071;fill-rule:nonzero;"/><path d="M58.494,433.965l121.379,-0l0,34.437l-80.729,0l0,53.071l67.746,-0l-0,34.437l-67.746,0l0,41.217l83.271,0l-0,34.438l-123.921,-0l0,-197.6Z" style="fill:#f0d071;fill-rule:nonzero;"/><path d="M358.81,581.316l-51.375,-76.779l-8.466,127.029l-41.779,0l15.808,-197.6l29.921,0l66.054,99.079l66.054,-99.079l29.925,0l15.804,197.6l-41.775,0l-8.471,-127.029l-51.375,76.779l-20.325,0Z" style="fill:#f0d071;fill-rule:nonzero;"/></svg>