<?xml version="1.0" encoding="UTF-8" standalone="no"?><!DOCTYPE svg PUBLIC "-//W3C//DTD SVG 1.1//EN" "http://www.w3.org/Graphics/SVG/1.1/DTD/svg11.dtd"><svg width="100%" height="100%" viewBox="0 0 712 109" version="1.1" xmlns="http://www.w3.org/2000/svg" xmlns:xlink="http://www.w3.org/1999/xlink" xml:space="preserve" xmlns:serif="http://www.serif.com/" style="fill-rule:evenodd;clip-rule:evenodd;stroke-linejoin:round;stroke-miterlimit:2;"><g id="Nav-Logo"><path d="M0,92.117l0,-70.379l34.996,-0l-0,13.608l-20.225,0l-0,13.025l20.225,0l-0,13.613l-20.225,-0l-0,16.529l20.225,-0l-0,13.604l-34.996,0Z" style="fill:#f9eed0;fill-rule:nonzero;"/><path d="M71.74,35.346l-0,56.771l-14.779,0l-0,-56.771l-12.05,0l-0,-13.608l38.887,-0l0,13.608l-12.058,0Z" style="fill:#f9eed0;fill-rule:nonzero;"/><path d="M93.026,92.117l0,-70.379l14.779,-0l0,26.633l17.592,0l0,-26.633l14.779,-0l0,70.379l-14.779,0l0,-30.133l-17.592,-0l0,30.133l-14.779,0Z" style="fill:#f9eed0;fill-rule:nonzero;"/><rect x="153.387" y="21.736" width="14.779" height="70.379" style="fill:#f9eed0;"/><path d="M215.413,49.637c-0.387,-12.542 -4.083,-15.458 -9.721,-15.458c-6.804,-0 -12.058,6.033 -12.058,22.754c0,16.712 5.254,22.737 12.058,22.737c7.68,0 9.334,-7.383 9.721,-14.866l15.167,-0c-0.1,15.941 -9.142,28.483 -26.054,28.483c-15.746,0 -26.054,-11.862 -26.054,-36.354c-0,-24.504 10.308,-36.363 26.054,-36.363c17.396,0 26.246,12.73 26.054,29.067l-15.167,0Z" style="fill:#f9eed0;fill-rule:nonzero;"/><path d="M262.556,42.345l-0.196,0l-4.467,22.75l9.138,0l-4.475,-22.75Zm26.929,49.771l-14.971,-0l-3.696,-13.417l-16.525,0l-3.5,13.417l-14.966,-0l19.633,-70.379l13.612,-0l20.413,70.379Z" style="fill:#f9eed0;fill-rule:nonzero;"/><path d="M297.453,21.735l14.771,0l-0,56.775l18.862,0l0,13.604l-33.633,0l-0,-70.379Z" style="fill:#f9eed0;fill-rule:nonzero;"/><path d="M696.256,54.983l-0,-54.646l-17.896,-0l-0,55.887c-0,17.617 -10.321,25.05 -21.608,25.05c-11.284,0 -21.613,-7.433 -21.613,-25.05l0,-55.887l-17.887,-0l-0,54.646c-0,28.491 18.029,41.429 39.5,41.429c21.475,-0 39.504,-12.938 39.504,-41.429" style="fill:#f9eed0;fill-rule:nonzero;"/><path d="M429.438,61.21l0,-17.27l13.292,9.32l-0,17.13l-32.888,-0l0,6.712l-13.291,0l-0,-15.892l32.887,0Zm6.304,-42.483l0,-17.258l13.288,9.316l-0,17.13l-39.188,-0l0,12.47l-13.291,0l-0,-21.658l39.191,0Zm1.23,79.213l-0,-17.271l13.291,9.321l0,17.125l-59.746,-0l-13.154,-9.175l59.609,-0Z" style="fill:#b6a050;fill-rule:nonzero;"/><path d="M572.191,1.468l13.292,9.175l7.675,96.47l-19.871,0l-13.154,-9.175l19.729,0l-7.671,-96.47Zm-18.633,67.004l-9.733,14.254l-8.767,-0l-13.154,-9.183l7.4,-0l22.333,-33.159l1.921,28.088Zm-58.104,-65.638l12.196,9.867l18.366,27.683l-2.612,4.104l-27.95,-41.654Zm-4.109,95.104l3.834,-57.554l12.746,18.909l-3.292,47.82l-19.863,0l-13.158,-9.175l19.733,0Z" style="fill:#b6a050;fill-rule:nonzero;"/><path d="M642.306,97.659c3.971,1.367 9.175,1.921 13.975,1.921c23.021,0 42.346,-13.846 42.346,-44.262l0,-53.85l13.292,9.316l-0,54.125c-0,30.146 -19.188,43.85 -41.934,43.85c-8.22,0 -13.841,-1.779 -19.733,-5.754l-7.946,-5.346Zm10.963,-19.325c-8.359,-1.229 -15.479,-7.937 -15.479,-21.787l-0,-55.079l13.287,9.316l0,55.359c0,4.791 0.683,8.908 2.192,12.191" style="fill:#b6a050;fill-rule:nonzero;"/><path d="M374.18,0l58.896,0l0,16.709l-39.171,-0l0,25.75l32.871,-0l0,16.708l-32.871,0l0,20l40.405,0l-0,16.708l-60.13,0l0,-95.875Z" style="fill:#f9eed0;fill-rule:nonzero;"/><path d="M517.873,71.496l-24.925,-37.259l-4.113,61.642l-20.27,0l7.67,-95.879l14.517,-0l32.05,48.075l32.05,-48.075l14.521,-0l7.667,95.879l-20.267,0l-4.113,-61.642l-24.92,37.259l-9.867,-0Z" style="fill:#f9eed0;fill-rule:nonzero;"/></g></svg>