<?xml version="1.0" encoding="UTF-8" standalone="no"?><!DOCTYPE svg PUBLIC "-//W3C//DTD SVG 1.1//EN" "http://www.w3.org/Graphics/SVG/1.1/DTD/svg11.dtd"><svg width="100%" height="100%" viewBox="0 0 2060 1296" version="1.1" xmlns="http://www.w3.org/2000/svg" xmlns:xlink="http://www.w3.org/1999/xlink" xml:space="preserve" xmlns:serif="http://www.serif.com/" style="fill-rule:evenodd;clip-rule:evenodd;stroke-linejoin:round;stroke-miterlimit:2;"><g id="Feathers-Top"><path d="M1012.67,258.457c-0.642,-0.913 -1.796,-1.292 -2.842,-1.021l-12.679,3.488l-6.504,-3.396c-0.908,-0.479 -2.021,-0.375 -2.829,0.254c-0.813,0.625 -1.179,1.675 -0.946,2.675l5.354,22.737c0.238,1.009 1.046,1.784 2.059,1.975c0.166,0.03 0.333,0.046 0.495,0.046c0.85,0 1.659,-0.408 2.159,-1.125l15.746,-22.621c0.629,-0.904 0.625,-2.108 -0.013,-3.012" style="fill:#fff;fill-rule:nonzero;"/><path d="M1495.32,6.695c-0.6,-0.934 -1.738,-1.404 -2.805,-1.138l-11.545,2.688l-12.08,-7.821c-1.058,-0.675 -2.433,-0.538 -3.308,0.367c-0.871,0.891 -0.996,2.275 -0.296,3.312l13.942,20.6c0.475,0.696 1.25,1.125 2.092,1.154l0.083,0c0.812,0 1.579,-0.375 2.079,-1.016l11.704,-15.117c0.679,-0.883 0.734,-2.096 0.134,-3.029" style="fill:#fff;fill-rule:nonzero;"/><path d="M1495.32,6.695c-0.6,-0.934 -1.738,-1.404 -2.805,-1.138l-11.545,2.688l-12.08,-7.821c-1.058,-0.675 -2.433,-0.538 -3.308,0.367c-0.871,0.891 -0.996,2.275 -0.296,3.312l13.942,20.6c0.475,0.696 1.25,1.125 2.092,1.154l0.083,0c0.812,0 1.579,-0.375 2.079,-1.016l11.704,-15.117c0.679,-0.883 0.734,-2.096 0.134,-3.029" style="fill:#fff;fill-rule:nonzero;"/><path d="M1495.32,6.695c-0.6,-0.934 -1.738,-1.404 -2.805,-1.138l-11.545,2.688l-12.08,-7.821c-1.058,-0.675 -2.433,-0.538 -3.308,0.367c-0.871,0.891 -0.996,2.275 -0.296,3.312l13.942,20.6c0.475,0.696 1.25,1.125 2.092,1.154l0.083,0c0.812,0 1.579,-0.375 2.079,-1.016l11.704,-15.117c0.679,-0.883 0.734,-2.096 0.134,-3.029" style="fill:#fff;fill-rule:nonzero;"/><path d="M1495.32,6.695c-0.6,-0.934 -1.738,-1.404 -2.805,-1.138l-11.545,2.688l-12.08,-7.821c-1.058,-0.675 -2.433,-0.538 -3.308,0.367c-0.871,0.891 -0.996,2.275 -0.296,3.312l13.942,20.6c0.475,0.696 1.25,1.125 2.092,1.154l0.083,0c0.812,0 1.579,-0.375 2.079,-1.016l11.704,-15.117c0.679,-0.883 0.734,-2.096 0.134,-3.029" style="fill:#fff;fill-rule:nonzero;"/><path d="M1495.32,6.695c-0.6,-0.934 -1.738,-1.404 -2.805,-1.138l-11.545,2.688l-12.08,-7.821c-1.058,-0.675 -2.433,-0.538 -3.308,0.367c-0.871,0.891 -0.996,2.275 -0.296,3.312l13.942,20.6c0.475,0.696 1.25,1.125 2.092,1.154l0.083,0c0.812,0 1.579,-0.375 2.079,-1.016l11.704,-15.117c0.679,-0.883 0.734,-2.096 0.134,-3.029" style="fill:#fff;fill-rule:nonzero;"/><path d="M954.321,44.142c0.5,0.525 1.188,0.812 1.904,0.812c0.163,0 0.325,-0.016 0.492,-0.045c0.883,-0.171 1.608,-0.771 1.946,-1.6l5.771,-14.43c0.404,-1.012 0.137,-2.179 -0.667,-2.912c-0.8,-0.742 -1.979,-0.9 -2.958,-0.408l-7.146,3.616l-10.879,-4.429c-1.121,-0.442 -2.459,-0.071 -3.155,0.958c-0.704,1.017 -0.591,2.392 0.267,3.288l14.425,15.15Z" style="fill:#fff;fill-rule:nonzero;"/><path d="M835.317,6.695c-0.6,-0.934 -1.738,-1.404 -2.805,-1.138l-11.545,2.688l-12.08,-7.821c-1.058,-0.675 -2.433,-0.538 -3.308,0.367c-0.871,0.891 -0.996,2.275 -0.296,3.312l13.942,20.6c0.475,0.696 1.25,1.125 2.092,1.154l0.083,0c0.812,0 1.579,-0.375 2.079,-1.016l11.704,-15.117c0.679,-0.883 0.734,-2.096 0.134,-3.029" style="fill:#fff;fill-rule:nonzero;"/><path d="M954.321,44.142c0.5,0.525 1.188,0.812 1.904,0.812c0.163,0 0.325,-0.016 0.492,-0.045c0.883,-0.171 1.608,-0.771 1.946,-1.6l5.771,-14.43c0.404,-1.012 0.137,-2.179 -0.667,-2.912c-0.8,-0.742 -1.979,-0.9 -2.958,-0.408l-7.146,3.616l-10.879,-4.429c-1.121,-0.442 -2.459,-0.071 -3.155,0.958c-0.704,1.017 -0.591,2.392 0.267,3.288l14.425,15.15Z" style="fill:#fff;fill-rule:nonzero;"/><path d="M835.317,6.695c-0.6,-0.934 -1.738,-1.404 -2.805,-1.138l-11.545,2.688l-12.08,-7.821c-1.058,-0.675 -2.433,-0.538 -3.308,0.367c-0.871,0.891 -0.996,2.275 -0.296,3.312l13.942,20.6c0.475,0.696 1.25,1.125 2.092,1.154l0.083,0c0.812,0 1.579,-0.375 2.079,-1.016l11.704,-15.117c0.679,-0.883 0.734,-2.096 0.134,-3.029" style="fill:#fff;fill-rule:nonzero;"/><path d="M954.321,44.142c0.5,0.525 1.188,0.812 1.904,0.812c0.163,0 0.325,-0.016 0.492,-0.045c0.883,-0.171 1.608,-0.771 1.946,-1.6l5.771,-14.43c0.404,-1.012 0.137,-2.179 -0.667,-2.912c-0.8,-0.742 -1.979,-0.9 -2.958,-0.408l-7.146,3.616l-10.879,-4.429c-1.121,-0.442 -2.459,-0.071 -3.155,0.958c-0.704,1.017 -0.591,2.392 0.267,3.288l14.425,15.15Z" style="fill:#fff;fill-rule:nonzero;"/><path d="M835.317,6.695c-0.6,-0.934 -1.738,-1.404 -2.805,-1.138l-11.545,2.688l-12.08,-7.821c-1.058,-0.675 -2.433,-0.538 -3.308,0.367c-0.871,0.891 -0.996,2.275 -0.296,3.312l13.942,20.6c0.475,0.696 1.25,1.125 2.092,1.154l0.083,0c0.812,0 1.579,-0.375 2.079,-1.016l11.704,-15.117c0.679,-0.883 0.734,-2.096 0.134,-3.029" style="fill:#fff;fill-rule:nonzero;"/><path d="M954.321,44.142c0.5,0.525 1.188,0.812 1.904,0.812c0.163,0 0.325,-0.016 0.492,-0.045c0.883,-0.171 1.608,-0.771 1.946,-1.6l5.771,-14.43c0.404,-1.012 0.137,-2.179 -0.667,-2.912c-0.8,-0.742 -1.979,-0.9 -2.958,-0.408l-7.146,3.616l-10.879,-4.429c-1.121,-0.442 -2.459,-0.071 -3.155,0.958c-0.704,1.017 -0.591,2.392 0.267,3.288l14.425,15.15Z" style="fill:#fff;fill-rule:nonzero;"/><path d="M835.317,6.695c-0.6,-0.934 -1.738,-1.404 -2.805,-1.138l-11.545,2.688l-12.08,-7.821c-1.058,-0.675 -2.433,-0.538 -3.308,0.367c-0.871,0.891 -0.996,2.275 -0.296,3.312l13.942,20.6c0.475,0.696 1.25,1.125 2.092,1.154l0.083,0c0.812,0 1.579,-0.375 2.079,-1.016l11.704,-15.117c0.679,-0.883 0.734,-2.096 0.134,-3.029" style="fill:#fff;fill-rule:nonzero;"/><path d="M835.317,6.695c-0.6,-0.934 -1.738,-1.404 -2.805,-1.138l-11.545,2.688l-12.08,-7.821c-1.058,-0.675 -2.433,-0.538 -3.308,0.367c-0.871,0.891 -0.996,2.275 -0.296,3.312l13.942,20.6c0.475,0.696 1.25,1.125 2.092,1.154l0.083,0c0.812,0 1.579,-0.375 2.079,-1.016l11.704,-15.117c0.679,-0.883 0.734,-2.096 0.134,-3.029" style="fill:#fff;fill-rule:nonzero;"/><path d="M954.321,44.142c0.5,0.525 1.188,0.812 1.904,0.812c0.163,0 0.325,-0.016 0.492,-0.045c0.883,-0.171 1.608,-0.771 1.946,-1.6l5.771,-14.43c0.404,-1.012 0.137,-2.179 -0.667,-2.912c-0.8,-0.742 -1.979,-0.9 -2.958,-0.408l-7.146,3.616l-10.879,-4.429c-1.121,-0.442 -2.459,-0.071 -3.155,0.958c-0.704,1.017 -0.591,2.392 0.267,3.288l14.425,15.15Z" style="fill:#fff;fill-rule:nonzero;"/><path d="M835.317,6.695c-0.6,-0.934 -1.738,-1.404 -2.805,-1.138l-11.545,2.688l-12.08,-7.821c-1.058,-0.675 -2.433,-0.538 -3.308,0.367c-0.871,0.891 -0.996,2.275 -0.296,3.312l13.942,20.6c0.475,0.696 1.25,1.125 2.092,1.154l0.083,0c0.812,0 1.579,-0.375 2.079,-1.016l11.704,-15.117c0.679,-0.883 0.734,-2.096 0.134,-3.029" style="fill:#fff;fill-rule:nonzero;"/><path d="M404.878,63.731c0.488,0.733 1.309,1.167 2.184,1.167l0.1,-0c0.908,-0.038 1.737,-0.542 2.191,-1.338l12.238,-21.754c0.537,-0.954 0.425,-2.142 -0.288,-2.979c-0.7,-0.829 -1.866,-1.146 -2.891,-0.779l-14.559,5.241l-9.396,-3.841c-1.079,-0.425 -2.295,-0.129 -3.029,0.771c-0.725,0.891 -0.791,2.154 -0.146,3.116l13.596,20.396Z" style="fill:#fff;fill-rule:nonzero;"/><path d="M294.321,44.142c0.5,0.525 1.187,0.812 1.904,0.812c0.162,0 0.325,-0.016 0.492,-0.045c0.883,-0.171 1.608,-0.771 1.945,-1.6l5.771,-14.43c0.404,-1.012 0.138,-2.179 -0.666,-2.912c-0.8,-0.742 -1.98,-0.9 -2.959,-0.408l-7.146,3.616l-10.879,-4.429c-1.121,-0.442 -2.458,-0.071 -3.154,0.958c-0.704,1.017 -0.592,2.392 0.267,3.288l14.425,15.15Z" style="fill:#fff;fill-rule:nonzero;"/><path d="M175.317,6.695c-0.6,-0.934 -1.738,-1.404 -2.805,-1.138l-11.545,2.688l-12.08,-7.821c-1.058,-0.675 -2.433,-0.538 -3.308,0.367c-0.871,0.891 -0.996,2.275 -0.296,3.312l13.942,20.6c0.475,0.696 1.25,1.125 2.092,1.154l0.083,0c0.812,0 1.579,-0.375 2.079,-1.016l11.704,-15.117c0.679,-0.883 0.734,-2.096 0.134,-3.029" style="fill:#fff;fill-rule:nonzero;"/><path d="M461.737,205.634l0.1,-0c0.909,-0.038 1.738,-0.542 2.188,-1.338l12.242,-21.754c0.533,-0.958 0.425,-2.141 -0.288,-2.983c-0.7,-0.829 -1.867,-1.142 -2.892,-0.775l-14.558,5.237l-9.396,-3.841c-1.079,-0.425 -2.296,-0.125 -3.029,0.771c-0.729,0.895 -0.792,2.158 -0.15,3.12l13.6,20.396c0.488,0.734 1.304,1.167 2.183,1.167" style="fill:#fff;fill-rule:nonzero;"/><path d="M953.153,187.519c-1.058,-0.675 -2.433,-0.538 -3.304,0.367c-0.875,0.891 -1,2.275 -0.3,3.308l13.946,20.604c0.471,0.696 1.246,1.125 2.087,1.154l0.084,0c0.812,0 1.579,-0.371 2.079,-1.016l11.704,-15.117c0.683,-0.883 0.733,-2.096 0.133,-3.029c-0.6,-0.938 -1.737,-1.404 -2.804,-1.138l-11.55,2.688l-12.075,-7.821Z" style="fill:#fff;fill-rule:nonzero;"/><path d="M104.821,446.687c-0.6,-0.938 -1.737,-1.404 -2.804,-1.138l-11.546,2.688l-12.079,-7.821c-1.058,-0.675 -2.433,-0.537 -3.308,0.367c-0.871,0.891 -0.996,2.275 -0.296,3.312l13.941,20.6c0.475,0.696 1.25,1.125 2.092,1.154l0.083,0c0.813,0 1.58,-0.375 2.08,-1.016l11.704,-15.117c0.679,-0.883 0.733,-2.096 0.133,-3.029" style="fill:#fff;fill-rule:nonzero;"/><path d="M21.641,540.601l-7.146,3.613l-10.879,-4.425c-1.121,-0.442 -2.459,-0.071 -3.154,0.954c-0.705,1.021 -0.592,2.391 0.262,3.291l14.429,15.15c0.5,0.525 1.192,0.813 1.9,0.813c0.167,-0 0.334,-0.017 0.496,-0.05c0.883,-0.171 1.613,-0.767 1.946,-1.596l5.771,-14.429c0.404,-1.017 0.137,-2.179 -0.667,-2.913c-0.8,-0.741 -1.979,-0.904 -2.958,-0.408" style="fill:#fff;fill-rule:nonzero;"/><path d="M293.153,187.519c-1.058,-0.675 -2.433,-0.538 -3.304,0.367c-0.875,0.891 -1,2.275 -0.3,3.308l13.946,20.604c0.471,0.696 1.246,1.125 2.087,1.154l0.084,0c0.812,0 1.579,-0.371 2.079,-1.016l11.704,-15.117c0.683,-0.883 0.733,-2.096 0.133,-3.029c-0.6,-0.938 -1.737,-1.404 -2.804,-1.138l-11.546,2.688l-12.079,-7.821Z" style="fill:#fff;fill-rule:nonzero;"/><path d="M1906.93,183.076l-8.396,3.996l-11.558,-4.512c-1.13,-0.442 -2.417,-0.046 -3.109,0.941c-0.696,0.996 -0.616,2.338 0.188,3.246l13.375,15.104c0.5,0.563 1.216,0.88 1.966,0.88c0.084,-0 0.163,-0.005 0.25,-0.009c0.838,-0.079 1.584,-0.558 2.013,-1.279l8.662,-14.662c0.584,-0.996 0.45,-2.255 -0.325,-3.109c-0.783,-0.846 -2.037,-1.1 -3.066,-0.596" style="fill:#fff;fill-rule:nonzero;"/><path d="M1899.32,490.038l-12.679,3.488l-6.504,-3.396c-0.909,-0.479 -2.021,-0.371 -2.825,0.254c-0.813,0.625 -1.184,1.675 -0.946,2.671l14.525,22.737c0.237,1.013 1.046,1.788 2.058,1.979c0.167,0.034 0.334,0.046 0.496,0.046c0.85,0 1.658,-0.408 2.158,-1.125l6.571,-22.621c0.634,-0.904 0.625,-2.108 -0.012,-3.012c-0.642,-0.913 -1.796,-1.292 -2.842,-1.021" style="fill:#fff;fill-rule:nonzero;"/><path d="M1915.97,616.341c-0.6,-0.938 -1.738,-1.405 -2.804,-1.138l-11.546,2.688l-12.079,-7.821c-1.059,-0.675 -2.434,-0.538 -3.309,0.366c-0.871,0.892 -0.996,2.275 -0.296,3.313l13.942,20.6c0.475,0.696 1.25,1.125 2.092,1.154l0.083,0c0.813,0 1.579,-0.375 2.079,-1.017l11.704,-15.116c0.68,-0.884 0.734,-2.096 0.134,-3.029" style="fill:#fff;fill-rule:nonzero;"/><path d="M1906.93,183.076l-8.396,3.996l-11.558,-4.512c-1.13,-0.442 -2.417,-0.046 -3.109,0.941c-0.696,0.996 -0.616,2.338 0.188,3.246l13.375,15.104c0.5,0.563 1.216,0.88 1.966,0.88c0.084,-0 0.163,-0.005 0.25,-0.009c0.838,-0.079 1.584,-0.558 2.013,-1.279l8.662,-14.662c0.584,-0.996 0.45,-2.255 -0.325,-3.109c-0.783,-0.846 -2.037,-1.1 -3.066,-0.596" style="fill:#fff;fill-rule:nonzero;"/><path d="M1899.32,490.038l-12.679,3.488l-6.504,-3.396c-0.909,-0.479 -2.021,-0.371 -2.825,0.254c-0.813,0.625 -1.184,1.675 -0.946,2.671l14.525,22.737c0.237,1.013 1.046,1.788 2.058,1.979c0.167,0.034 0.334,0.046 0.496,0.046c0.85,0 1.658,-0.408 2.158,-1.125l6.571,-22.621c0.634,-0.904 0.625,-2.108 -0.012,-3.012c-0.642,-0.913 -1.796,-1.292 -2.842,-1.021" style="fill:#fff;fill-rule:nonzero;"/><path d="M1915.97,616.341c-0.6,-0.938 -1.738,-1.405 -2.804,-1.138l-11.546,2.688l-12.079,-7.821c-1.059,-0.675 -2.434,-0.538 -3.309,0.366c-0.871,0.892 -0.996,2.275 -0.296,3.313l13.942,20.6c0.475,0.696 1.25,1.125 2.092,1.154l0.083,0c0.813,0 1.579,-0.375 2.079,-1.017l11.704,-15.116c0.68,-0.884 0.734,-2.096 0.134,-3.029" style="fill:#fff;fill-rule:nonzero;"/><path d="M1906.93,183.076l-8.396,3.996l-11.558,-4.512c-1.13,-0.442 -2.417,-0.046 -3.109,0.941c-0.696,0.996 -0.616,2.338 0.188,3.246l13.375,15.104c0.5,0.563 1.216,0.88 1.966,0.88c0.084,-0 0.163,-0.005 0.25,-0.009c0.838,-0.079 1.584,-0.558 2.013,-1.279l8.662,-14.662c0.584,-0.996 0.45,-2.255 -0.325,-3.109c-0.783,-0.846 -2.037,-1.1 -3.066,-0.596" style="fill:#fff;fill-rule:nonzero;"/><path d="M1899.32,490.038l-12.679,3.488l-6.504,-3.396c-0.909,-0.479 -2.021,-0.371 -2.825,0.254c-0.813,0.625 -1.184,1.675 -0.946,2.671l14.525,22.737c0.237,1.013 1.046,1.788 2.058,1.979c0.167,0.034 0.334,0.046 0.496,0.046c0.85,0 1.658,-0.408 2.158,-1.125l6.571,-22.621c0.634,-0.904 0.625,-2.108 -0.012,-3.012c-0.642,-0.913 -1.796,-1.292 -2.842,-1.021" style="fill:#fff;fill-rule:nonzero;"/><path d="M1915.97,616.341c-0.6,-0.938 -1.738,-1.405 -2.804,-1.138l-11.546,2.688l-12.079,-7.821c-1.059,-0.675 -2.434,-0.538 -3.309,0.366c-0.871,0.892 -0.996,2.275 -0.296,3.313l13.942,20.6c0.475,0.696 1.25,1.125 2.092,1.154l0.083,0c0.813,0 1.579,-0.375 2.079,-1.017l11.704,-15.116c0.68,-0.884 0.734,-2.096 0.134,-3.029" style="fill:#fff;fill-rule:nonzero;"/><path d="M1938.48,724.934c-0.641,-0.912 -1.796,-1.291 -2.841,-1.02l-12.68,3.487l-6.504,-3.396c-0.908,-0.479 -2.021,-0.375 -2.829,0.254c-0.812,0.625 -1.179,1.675 -0.946,2.675l5.354,22.738c0.238,1.008 1.046,1.783 2.063,1.975c0.162,0.029 0.329,0.046 0.492,0.046c0.85,-0 1.658,-0.409 2.158,-1.125l15.746,-22.621c0.629,-0.904 0.625,-2.108 -0.013,-3.013" style="fill:#fff;fill-rule:nonzero;"/><path d="M1915.97,1276.34c-0.6,-0.934 -1.738,-1.405 -2.804,-1.138l-11.546,2.688l-12.079,-7.821c-1.059,-0.675 -2.434,-0.538 -3.309,0.366c-0.871,0.892 -0.996,2.275 -0.296,3.313l13.942,20.6c0.475,0.696 1.25,1.125 2.092,1.154l0.083,0c0.813,0 1.579,-0.375 2.079,-1.017l11.704,-15.116c0.68,-0.884 0.734,-2.096 0.134,-3.029" style="fill:#fff;fill-rule:nonzero;"/><path d="M1906.93,183.076l-8.396,3.996l-11.558,-4.512c-1.13,-0.442 -2.417,-0.046 -3.109,0.941c-0.696,0.996 -0.616,2.338 0.188,3.246l13.375,15.104c0.5,0.563 1.216,0.88 1.966,0.88c0.084,-0 0.163,-0.005 0.25,-0.009c0.838,-0.079 1.584,-0.558 2.013,-1.279l8.662,-14.662c0.584,-0.996 0.45,-2.255 -0.325,-3.109c-0.783,-0.846 -2.037,-1.1 -3.066,-0.596" style="fill:#fff;fill-rule:nonzero;"/><path d="M1899.32,490.038l-12.679,3.488l-6.504,-3.396c-0.909,-0.479 -2.021,-0.371 -2.825,0.254c-0.813,0.625 -1.184,1.675 -0.946,2.671l14.525,22.737c0.237,1.013 1.046,1.788 2.058,1.979c0.167,0.034 0.334,0.046 0.496,0.046c0.85,0 1.658,-0.408 2.158,-1.125l6.571,-22.621c0.634,-0.904 0.625,-2.108 -0.012,-3.012c-0.642,-0.913 -1.796,-1.292 -2.842,-1.021" style="fill:#fff;fill-rule:nonzero;"/><path d="M1915.97,616.341c-0.6,-0.938 -1.738,-1.405 -2.804,-1.138l-11.546,2.688l-12.079,-7.821c-1.059,-0.675 -2.434,-0.538 -3.309,0.366c-0.871,0.892 -0.996,2.275 -0.296,3.313l13.942,20.6c0.475,0.696 1.25,1.125 2.092,1.154l0.083,0c0.813,0 1.579,-0.375 2.079,-1.017l11.704,-15.116c0.68,-0.884 0.734,-2.096 0.134,-3.029" style="fill:#fff;fill-rule:nonzero;"/><path d="M1938.48,724.934c-0.641,-0.912 -1.796,-1.291 -2.841,-1.02l-12.68,3.487l-6.504,-3.396c-0.908,-0.479 -2.021,-0.375 -2.829,0.254c-0.812,0.625 -1.179,1.675 -0.946,2.675l5.354,22.738c0.238,1.008 1.046,1.783 2.063,1.975c0.162,0.029 0.329,0.046 0.492,0.046c0.85,-0 1.658,-0.409 2.158,-1.125l15.746,-22.621c0.629,-0.904 0.625,-2.108 -0.013,-3.013" style="fill:#fff;fill-rule:nonzero;"/><path d="M1938.48,724.934c-0.641,-0.912 -1.796,-1.291 -2.841,-1.02l-12.68,3.487l-6.504,-3.396c-0.908,-0.479 -2.021,-0.375 -2.829,0.254c-0.812,0.625 -1.179,1.675 -0.946,2.675l5.354,22.738c0.238,1.008 1.046,1.783 2.063,1.975c0.162,0.029 0.329,0.046 0.492,0.046c0.85,-0 1.658,-0.409 2.158,-1.125l15.746,-22.621c0.629,-0.904 0.625,-2.108 -0.013,-3.013" style="fill:#fff;fill-rule:nonzero;"/><path d="M1906.93,183.076l-8.396,3.996l-11.558,-4.512c-1.13,-0.442 -2.417,-0.046 -3.109,0.941c-0.696,0.996 -0.616,2.338 0.188,3.246l13.375,15.104c0.5,0.563 1.216,0.88 1.966,0.88c0.084,-0 0.163,-0.005 0.25,-0.009c0.838,-0.079 1.584,-0.558 2.013,-1.279l8.662,-14.662c0.584,-0.996 0.45,-2.255 -0.325,-3.109c-0.783,-0.846 -2.037,-1.1 -3.066,-0.596" style="fill:#fff;fill-rule:nonzero;"/><path d="M1899.32,490.038l-12.679,3.488l-6.504,-3.396c-0.909,-0.479 -2.021,-0.371 -2.825,0.254c-0.813,0.625 -1.184,1.675 -0.946,2.671l14.525,22.737c0.237,1.013 1.046,1.788 2.058,1.979c0.167,0.034 0.334,0.046 0.496,0.046c0.85,0 1.658,-0.408 2.158,-1.125l6.571,-22.621c0.634,-0.904 0.625,-2.108 -0.012,-3.012c-0.642,-0.913 -1.796,-1.292 -2.842,-1.021" style="fill:#fff;fill-rule:nonzero;"/><path d="M1915.97,616.341c-0.6,-0.938 -1.738,-1.405 -2.804,-1.138l-11.546,2.688l-12.079,-7.821c-1.059,-0.675 -2.434,-0.538 -3.309,0.366c-0.871,0.892 -0.996,2.275 -0.296,3.313l13.942,20.6c0.475,0.696 1.25,1.125 2.092,1.154l0.083,0c0.813,0 1.579,-0.375 2.079,-1.017l11.704,-15.116c0.68,-0.884 0.734,-2.096 0.134,-3.029" style="fill:#fff;fill-rule:nonzero;"/><path d="M2019.4,1018.02l-11.063,5.817l-10.662,-0.679c-1.221,-0.129 -2.213,0.617 -2.625,1.692c-0.408,1.079 -0.067,2.295 0.846,3l12.237,9.52c0.463,0.359 1.034,0.55 1.613,0.55c0.121,0 0.241,-0.004 0.366,-0.025c0.705,-0.095 1.338,-0.479 1.759,-1.054l10.875,-14.95c0.716,-0.991 0.658,-2.346 -0.138,-3.262c-0.8,-0.934 -2.125,-1.188 -3.208,-0.609" style="fill:#fff;fill-rule:nonzero;"/><path d="M2001.64,1200.6l-7.146,3.613l-10.879,-4.425c-1.121,-0.442 -2.459,-0.071 -3.154,0.954c-0.705,1.021 -0.592,2.391 0.262,3.291l14.429,15.15c0.5,0.525 1.192,0.813 1.9,0.813c0.167,-0 0.334,-0.017 0.496,-0.05c0.883,-0.171 1.613,-0.767 1.946,-1.596l5.771,-14.429c0.404,-1.017 0.137,-2.179 -0.667,-2.913c-0.8,-0.741 -1.979,-0.904 -2.958,-0.408" style="fill:#fff;fill-rule:nonzero;"/><path d="M1938.48,724.934c-0.641,-0.912 -1.796,-1.291 -2.841,-1.02l-12.68,3.487l-6.504,-3.396c-0.908,-0.479 -2.021,-0.375 -2.829,0.254c-0.812,0.625 -1.179,1.675 -0.946,2.675l5.354,22.738c0.238,1.008 1.046,1.783 2.063,1.975c0.162,0.029 0.329,0.046 0.492,0.046c0.85,-0 1.658,-0.409 2.158,-1.125l15.746,-22.621c0.629,-0.904 0.625,-2.108 -0.013,-3.013" style="fill:#fff;fill-rule:nonzero;"/><path d="M1977.07,875.854l0.1,-0c0.909,-0.038 1.738,-0.542 2.192,-1.338l12.237,-21.754c0.538,-0.958 0.425,-2.142 -0.287,-2.983c-0.7,-0.83 -1.867,-1.142 -2.892,-0.775l-14.558,5.237l-9.396,-3.842c-1.079,-0.425 -2.296,-0.125 -3.029,0.771c-0.729,0.896 -0.792,2.159 -0.15,3.121l13.6,20.392c0.487,0.737 1.308,1.171 2.183,1.171" style="fill:#fff;fill-rule:nonzero;"/><path d="M2048.9,792.359c0.5,0.525 1.192,0.813 1.904,0.813c0.163,-0 0.33,-0.017 0.492,-0.046c0.883,-0.171 1.613,-0.771 1.946,-1.6l5.771,-14.429c0.404,-1.013 0.137,-2.179 -0.663,-2.913c-0.804,-0.741 -1.983,-0.9 -2.962,-0.408l-7.146,3.613l-10.875,-4.425c-1.125,-0.442 -2.463,-0.071 -3.158,0.958c-0.705,1.017 -0.592,2.387 0.266,3.287l14.425,15.15Z" style="fill:#fff;fill-rule:nonzero;"/><path d="M1906.93,964.006l-8.396,3.996l-11.558,-4.512c-1.13,-0.442 -2.417,-0.046 -3.109,0.941c-0.696,0.996 -0.616,2.338 0.188,3.246l13.375,15.104c0.5,0.563 1.216,0.88 1.966,0.88c0.084,-0 0.163,-0.005 0.25,-0.009c0.838,-0.079 1.584,-0.558 2.013,-1.279l8.662,-14.662c0.584,-0.996 0.45,-2.255 -0.325,-3.109c-0.783,-0.846 -2.037,-1.1 -3.066,-0.596" style="fill:#fff;fill-rule:nonzero;"/><path d="M1915.97,1276.34c-0.6,-0.934 -1.738,-1.405 -2.804,-1.138l-11.546,2.688l-12.079,-7.821c-1.059,-0.675 -2.434,-0.538 -3.309,0.366c-0.871,0.892 -0.996,2.275 -0.296,3.313l13.942,20.6c0.475,0.696 1.25,1.125 2.092,1.154l0.083,0c0.813,0 1.579,-0.375 2.079,-1.017l11.704,-15.116c0.68,-0.884 0.734,-2.096 0.134,-3.029" style="fill:#fff;fill-rule:nonzero;"/><path d="M1917.44,679.83l-7.146,3.613l-10.879,-4.425c-1.121,-0.442 -2.458,-0.071 -3.154,0.954c-0.704,1.021 -0.592,2.392 0.262,3.292l14.429,15.15c0.5,0.525 1.188,0.812 1.9,0.812c0.167,0 0.33,-0.017 0.496,-0.05c0.884,-0.171 1.609,-0.771 1.946,-1.6l5.771,-14.425c0.404,-1.017 0.137,-2.179 -0.667,-2.912c-0.8,-0.746 -1.979,-0.905 -2.958,-0.409" style="fill:#fff;fill-rule:nonzero;"/><path d="M1906.93,183.076l-8.396,3.996l-11.558,-4.512c-1.13,-0.442 -2.417,-0.046 -3.109,0.941c-0.696,0.996 -0.616,2.338 0.188,3.246l13.375,15.104c0.5,0.563 1.216,0.88 1.966,0.88c0.084,-0 0.163,-0.005 0.25,-0.009c0.838,-0.079 1.584,-0.558 2.013,-1.279l8.662,-14.662c0.584,-0.996 0.45,-2.255 -0.325,-3.109c-0.783,-0.846 -2.037,-1.1 -3.066,-0.596" style="fill:#fff;fill-rule:nonzero;"/><path d="M1899.32,490.038l-12.679,3.488l-6.504,-3.396c-0.909,-0.479 -2.021,-0.371 -2.825,0.254c-0.813,0.625 -1.184,1.675 -0.946,2.671l14.525,22.737c0.237,1.013 1.046,1.788 2.058,1.979c0.167,0.034 0.334,0.046 0.496,0.046c0.85,0 1.658,-0.408 2.158,-1.125l6.571,-22.621c0.634,-0.904 0.625,-2.108 -0.012,-3.012c-0.642,-0.913 -1.796,-1.292 -2.842,-1.021" style="fill:#fff;fill-rule:nonzero;"/><path d="M1915.97,616.341c-0.6,-0.938 -1.738,-1.405 -2.804,-1.138l-11.546,2.688l-12.079,-7.821c-1.059,-0.675 -2.434,-0.538 -3.309,0.366c-0.871,0.892 -0.996,2.275 -0.296,3.313l13.942,20.6c0.475,0.696 1.25,1.125 2.092,1.154l0.083,0c0.813,0 1.579,-0.375 2.079,-1.017l11.704,-15.116c0.68,-0.884 0.734,-2.096 0.134,-3.029" style="fill:#fff;fill-rule:nonzero;"/><path d="M1906.93,183.076l-8.396,3.996l-11.558,-4.512c-1.13,-0.442 -2.417,-0.046 -3.109,0.941c-0.696,0.996 -0.616,2.338 0.188,3.246l13.375,15.104c0.5,0.563 1.216,0.88 1.966,0.88c0.084,-0 0.163,-0.005 0.25,-0.009c0.838,-0.079 1.584,-0.558 2.013,-1.279l8.662,-14.662c0.584,-0.996 0.45,-2.255 -0.325,-3.109c-0.783,-0.846 -2.037,-1.1 -3.066,-0.596" style="fill:#fff;fill-rule:nonzero;"/><path d="M1495.32,6.695c-0.6,-0.934 -1.738,-1.404 -2.805,-1.138l-11.545,2.688l-12.08,-7.821c-1.058,-0.675 -2.433,-0.538 -3.308,0.367c-0.871,0.891 -0.996,2.275 -0.296,3.312l13.942,20.6c0.475,0.696 1.25,1.125 2.092,1.154l0.083,0c0.812,0 1.579,-0.375 2.079,-1.016l11.704,-15.117c0.679,-0.883 0.734,-2.096 0.134,-3.029" style="fill:#fff;fill-rule:nonzero;"/><path d="M1819.01,640.209c-0.6,-0.937 -1.738,-1.404 -2.805,-1.137l-11.545,2.687l-12.08,-7.82c-1.058,-0.675 -2.433,-0.538 -3.308,0.366c-0.871,0.892 -0.996,2.275 -0.296,3.309l13.942,20.604c0.475,0.696 1.25,1.125 2.092,1.154l0.083,-0c0.812,-0 1.579,-0.375 2.079,-1.017l11.704,-15.116c0.679,-0.884 0.734,-2.096 0.134,-3.03" style="fill:#fff;fill-rule:nonzero;"/><path d="M2019.4,1018.02l-11.063,5.817l-10.662,-0.679c-1.221,-0.129 -2.213,0.617 -2.625,1.692c-0.408,1.079 -0.067,2.295 0.846,3l12.237,9.52c0.463,0.359 1.034,0.55 1.613,0.55c0.121,0 0.241,-0.004 0.366,-0.025c0.705,-0.095 1.338,-0.479 1.759,-1.054l10.875,-14.95c0.716,-0.991 0.658,-2.346 -0.138,-3.262c-0.8,-0.934 -2.125,-1.188 -3.208,-0.609" style="fill:#fff;fill-rule:nonzero;"/><path d="M2001.64,1200.6l-7.146,3.613l-10.879,-4.425c-1.121,-0.442 -2.459,-0.071 -3.154,0.954c-0.705,1.021 -0.592,2.391 0.262,3.291l14.429,15.15c0.5,0.525 1.192,0.813 1.9,0.813c0.167,-0 0.334,-0.017 0.496,-0.05c0.883,-0.171 1.613,-0.767 1.946,-1.596l5.771,-14.429c0.404,-1.017 0.137,-2.179 -0.667,-2.913c-0.8,-0.741 -1.979,-0.904 -2.958,-0.408" style="fill:#fff;fill-rule:nonzero;"/><path d="M1938.48,724.934c-0.641,-0.912 -1.796,-1.291 -2.841,-1.02l-12.68,3.487l-6.504,-3.396c-0.908,-0.479 -2.021,-0.375 -2.829,0.254c-0.812,0.625 -1.179,1.675 -0.946,2.675l5.354,22.738c0.238,1.008 1.046,1.783 2.063,1.975c0.162,0.029 0.329,0.046 0.492,0.046c0.85,-0 1.658,-0.409 2.158,-1.125l15.746,-22.621c0.629,-0.904 0.625,-2.108 -0.013,-3.013" style="fill:#fff;fill-rule:nonzero;"/><path d="M1977.07,875.854l0.1,-0c0.909,-0.038 1.738,-0.542 2.192,-1.338l12.237,-21.754c0.538,-0.958 0.425,-2.142 -0.287,-2.983c-0.7,-0.83 -1.867,-1.142 -2.892,-0.775l-14.558,5.237l-9.396,-3.842c-1.079,-0.425 -2.296,-0.125 -3.029,0.771c-0.729,0.896 -0.792,2.159 -0.15,3.121l13.6,20.392c0.487,0.737 1.308,1.171 2.183,1.171" style="fill:#fff;fill-rule:nonzero;"/><path d="M2048.9,792.359c0.5,0.525 1.192,0.813 1.904,0.813c0.163,-0 0.33,-0.017 0.492,-0.046c0.883,-0.171 1.613,-0.771 1.946,-1.6l5.771,-14.429c0.404,-1.013 0.137,-2.179 -0.663,-2.913c-0.804,-0.741 -1.983,-0.9 -2.962,-0.408l-7.146,3.613l-10.875,-4.425c-1.125,-0.442 -2.463,-0.071 -3.158,0.958c-0.705,1.017 -0.592,2.387 0.266,3.287l14.425,15.15Z" style="fill:#fff;fill-rule:nonzero;"/><path d="M1906.93,964.006l-8.396,3.996l-11.558,-4.512c-1.13,-0.442 -2.417,-0.046 -3.109,0.941c-0.696,0.996 -0.616,2.338 0.188,3.246l13.375,15.104c0.5,0.563 1.216,0.88 1.966,0.88c0.084,-0 0.163,-0.005 0.25,-0.009c0.838,-0.079 1.584,-0.558 2.013,-1.279l8.662,-14.662c0.584,-0.996 0.45,-2.255 -0.325,-3.109c-0.783,-0.846 -2.037,-1.1 -3.066,-0.596" style="fill:#fff;fill-rule:nonzero;"/><path d="M1915.97,1276.34c-0.6,-0.934 -1.738,-1.405 -2.804,-1.138l-11.546,2.688l-12.079,-7.821c-1.059,-0.675 -2.434,-0.538 -3.309,0.366c-0.871,0.892 -0.996,2.275 -0.296,3.313l13.942,20.6c0.475,0.696 1.25,1.125 2.092,1.154l0.083,0c0.813,0 1.579,-0.375 2.079,-1.017l11.704,-15.116c0.68,-0.884 0.734,-2.096 0.134,-3.029" style="fill:#fff;fill-rule:nonzero;"/><path d="M1906.93,964.006l-8.396,3.996l-11.558,-4.512c-1.13,-0.442 -2.417,-0.046 -3.109,0.941c-0.696,0.996 -0.616,2.338 0.188,3.246l13.375,15.104c0.5,0.563 1.216,0.88 1.966,0.88c0.084,-0 0.163,-0.005 0.25,-0.009c0.838,-0.079 1.584,-0.558 2.013,-1.279l8.662,-14.662c0.584,-0.996 0.45,-2.255 -0.325,-3.109c-0.783,-0.846 -2.037,-1.1 -3.066,-0.596" style="fill:#fff;fill-rule:nonzero;"/><path d="M1889.5,860.217c-0.6,-0.933 -1.737,-1.404 -2.804,-1.137l-11.546,2.687l-12.079,-7.821c-1.058,-0.675 -2.433,-0.537 -3.308,0.367c-0.871,0.892 -0.996,2.275 -0.296,3.313l13.942,20.6c0.475,0.695 1.25,1.125 2.091,1.154l0.084,-0c0.812,-0 1.579,-0.375 2.079,-1.017l11.704,-15.117c0.679,-0.883 0.733,-2.095 0.133,-3.029" style="fill:#fff;fill-rule:nonzero;"/><path d="M1938.48,724.934c-0.641,-0.912 -1.796,-1.291 -2.841,-1.02l-12.68,3.487l-6.504,-3.396c-0.908,-0.479 -2.021,-0.375 -2.829,0.254c-0.812,0.625 -1.179,1.675 -0.946,2.675l5.354,22.738c0.238,1.008 1.046,1.783 2.063,1.975c0.162,0.029 0.329,0.046 0.492,0.046c0.85,-0 1.658,-0.409 2.158,-1.125l15.746,-22.621c0.629,-0.904 0.625,-2.108 -0.013,-3.013" style="fill:#fff;fill-rule:nonzero;"/><path d="M1915.97,1276.34c-0.6,-0.934 -1.738,-1.405 -2.804,-1.138l-11.546,2.688l-12.079,-7.821c-1.059,-0.675 -2.434,-0.538 -3.309,0.366c-0.871,0.892 -0.996,2.275 -0.296,3.313l13.942,20.6c0.475,0.696 1.25,1.125 2.092,1.154l0.083,0c0.813,0 1.579,-0.375 2.079,-1.017l11.704,-15.116c0.68,-0.884 0.734,-2.096 0.134,-3.029" style="fill:#fff;fill-rule:nonzero;"/><path d="M1906.93,183.076l-8.396,3.996l-11.558,-4.512c-1.13,-0.442 -2.417,-0.046 -3.109,0.941c-0.696,0.996 -0.616,2.338 0.188,3.246l13.375,15.104c0.5,0.563 1.216,0.88 1.966,0.88c0.084,-0 0.163,-0.005 0.25,-0.009c0.838,-0.079 1.584,-0.558 2.013,-1.279l8.662,-14.662c0.584,-0.996 0.45,-2.255 -0.325,-3.109c-0.783,-0.846 -2.037,-1.1 -3.066,-0.596" style="fill:#fff;fill-rule:nonzero;"/><path d="M1495.32,6.695c-0.6,-0.934 -1.738,-1.404 -2.805,-1.138l-11.545,2.688l-12.08,-7.821c-1.058,-0.675 -2.433,-0.538 -3.308,0.367c-0.871,0.891 -0.996,2.275 -0.296,3.312l13.942,20.6c0.475,0.696 1.25,1.125 2.092,1.154l0.083,0c0.812,0 1.579,-0.375 2.079,-1.016l11.704,-15.117c0.679,-0.883 0.734,-2.096 0.134,-3.029" style="fill:#fff;fill-rule:nonzero;"/><path d="M1753.59,551.547l-11.063,5.817l-10.658,-0.68c-1.225,-0.129 -2.217,0.617 -2.625,1.692c-0.413,1.079 -0.071,2.296 0.842,3.004l12.237,9.517c0.463,0.358 1.033,0.55 1.613,0.55c0.12,-0 0.241,-0.004 0.366,-0.025c0.704,-0.096 1.338,-0.479 1.759,-1.054l10.875,-14.95c0.716,-0.992 0.658,-2.346 -0.138,-3.263c-0.8,-0.933 -2.125,-1.187 -3.208,-0.608" style="fill:#fff;fill-rule:nonzero;"/><path d="M1906.93,964.006l-8.396,3.996l-11.558,-4.512c-1.13,-0.442 -2.417,-0.046 -3.109,0.941c-0.696,0.996 -0.616,2.338 0.188,3.246l13.375,15.104c0.5,0.563 1.216,0.88 1.966,0.88c0.084,-0 0.163,-0.005 0.25,-0.009c0.838,-0.079 1.584,-0.558 2.013,-1.279l8.662,-14.662c0.584,-0.996 0.45,-2.255 -0.325,-3.109c-0.783,-0.846 -2.037,-1.1 -3.066,-0.596" style="fill:#fff;fill-rule:nonzero;"/><path d="M1735.83,734.124l-7.146,3.612l-10.879,-4.425c-1.121,-0.442 -2.459,-0.071 -3.155,0.954c-0.704,1.021 -0.591,2.392 0.263,3.292l14.429,15.15c0.5,0.525 1.192,0.812 1.9,0.812c0.167,0 0.333,-0.016 0.496,-0.05c0.883,-0.166 1.612,-0.766 1.946,-1.595l5.771,-14.43c0.404,-1.016 0.137,-2.179 -0.667,-2.912c-0.8,-0.742 -1.979,-0.904 -2.958,-0.408" style="fill:#fff;fill-rule:nonzero;"/><path d="M1906.93,183.076l-8.396,3.996l-11.558,-4.512c-1.13,-0.442 -2.417,-0.046 -3.109,0.941c-0.696,0.996 -0.616,2.338 0.188,3.246l13.375,15.104c0.5,0.563 1.216,0.88 1.966,0.88c0.084,-0 0.163,-0.005 0.25,-0.009c0.838,-0.079 1.584,-0.558 2.013,-1.279l8.662,-14.662c0.584,-0.996 0.45,-2.255 -0.325,-3.109c-0.783,-0.846 -2.037,-1.1 -3.066,-0.596" style="fill:#fff;fill-rule:nonzero;"/><path d="M1495.32,6.695c-0.6,-0.934 -1.738,-1.404 -2.805,-1.138l-11.545,2.688l-12.08,-7.821c-1.058,-0.675 -2.433,-0.538 -3.308,0.367c-0.871,0.891 -0.996,2.275 -0.296,3.312l13.942,20.6c0.475,0.696 1.25,1.125 2.092,1.154l0.083,0c0.812,0 1.579,-0.375 2.079,-1.016l11.704,-15.117c0.679,-0.883 0.734,-2.096 0.134,-3.029" style="fill:#fff;fill-rule:nonzero;"/><path d="M1672.67,258.457c-0.642,-0.913 -1.796,-1.292 -2.842,-1.021l-12.679,3.488l-6.504,-3.396c-0.908,-0.479 -2.021,-0.375 -2.829,0.254c-0.813,0.625 -1.179,1.675 -0.946,2.675l5.354,22.737c0.238,1.009 1.046,1.784 2.063,1.975c0.162,0.03 0.329,0.046 0.491,0.046c0.85,0 1.659,-0.408 2.159,-1.125l15.746,-22.621c0.629,-0.904 0.625,-2.108 -0.013,-3.012" style="fill:#fff;fill-rule:nonzero;"/><path d="M1906.93,183.076l-8.396,3.996l-11.558,-4.512c-1.13,-0.442 -2.417,-0.046 -3.109,0.941c-0.696,0.996 -0.616,2.338 0.188,3.246l13.375,15.104c0.5,0.563 1.216,0.88 1.966,0.88c0.084,-0 0.163,-0.005 0.25,-0.009c0.838,-0.079 1.584,-0.558 2.013,-1.279l8.662,-14.662c0.584,-0.996 0.45,-2.255 -0.325,-3.109c-0.783,-0.846 -2.037,-1.1 -3.066,-0.596" style="fill:#fff;fill-rule:nonzero;"/><path d="M1495.32,6.695c-0.6,-0.934 -1.738,-1.404 -2.805,-1.138l-11.545,2.688l-12.08,-7.821c-1.058,-0.675 -2.433,-0.538 -3.308,0.367c-0.871,0.891 -0.996,2.275 -0.296,3.312l13.942,20.6c0.475,0.696 1.25,1.125 2.092,1.154l0.083,0c0.812,0 1.579,-0.375 2.079,-1.016l11.704,-15.117c0.679,-0.883 0.734,-2.096 0.134,-3.029" style="fill:#fff;fill-rule:nonzero;"/><path d="M1711.26,409.376l0.1,-0c0.908,-0.038 1.738,-0.542 2.192,-1.338l12.237,-21.754c0.538,-0.958 0.425,-2.142 -0.287,-2.983c-0.7,-0.83 -1.867,-1.142 -2.892,-0.775l-14.558,5.237l-9.396,-3.842c-1.079,-0.425 -2.296,-0.125 -3.029,0.771c-0.729,0.896 -0.792,2.159 -0.15,3.121l13.6,20.392c0.487,0.737 1.308,1.171 2.183,1.171" style="fill:#fff;fill-rule:nonzero;"/><path d="M1906.93,183.076l-8.396,3.996l-11.558,-4.512c-1.13,-0.442 -2.417,-0.046 -3.109,0.941c-0.696,0.996 -0.616,2.338 0.188,3.246l13.375,15.104c0.5,0.563 1.216,0.88 1.966,0.88c0.084,-0 0.163,-0.005 0.25,-0.009c0.838,-0.079 1.584,-0.558 2.013,-1.279l8.662,-14.662c0.584,-0.996 0.45,-2.255 -0.325,-3.109c-0.783,-0.846 -2.037,-1.1 -3.066,-0.596" style="fill:#fff;fill-rule:nonzero;"/><path d="M1495.32,6.695c-0.6,-0.934 -1.738,-1.404 -2.805,-1.138l-11.545,2.688l-12.08,-7.821c-1.058,-0.675 -2.433,-0.538 -3.308,0.367c-0.871,0.891 -0.996,2.275 -0.296,3.312l13.942,20.6c0.475,0.696 1.25,1.125 2.092,1.154l0.083,0c0.812,0 1.579,-0.375 2.079,-1.016l11.704,-15.117c0.679,-0.883 0.734,-2.096 0.134,-3.029" style="fill:#fff;fill-rule:nonzero;"/><path d="M1842.98,469.711c0.487,0.734 1.308,1.171 2.183,1.171l0.1,0c0.908,-0.037 1.737,-0.541 2.192,-1.341l12.237,-21.755c0.538,-0.954 0.425,-2.141 -0.287,-2.979c-0.7,-0.829 -1.867,-1.141 -2.892,-0.779l-14.558,5.242l-9.396,-3.842c-1.079,-0.425 -2.296,-0.129 -3.029,0.771c-0.725,0.892 -0.792,2.158 -0.146,3.117l13.596,20.395Z" style="fill:#fff;fill-rule:nonzero;"/><path d="M1906.93,183.076l-8.396,3.996l-11.558,-4.512c-1.13,-0.442 -2.417,-0.046 -3.109,0.941c-0.696,0.996 -0.616,2.338 0.188,3.246l13.375,15.104c0.5,0.563 1.216,0.88 1.966,0.88c0.084,-0 0.163,-0.005 0.25,-0.009c0.838,-0.079 1.584,-0.558 2.013,-1.279l8.662,-14.662c0.584,-0.996 0.45,-2.255 -0.325,-3.109c-0.783,-0.846 -2.037,-1.1 -3.066,-0.596" style="fill:#fff;fill-rule:nonzero;"/><path d="M1495.32,6.695c-0.6,-0.934 -1.738,-1.404 -2.805,-1.138l-11.545,2.688l-12.08,-7.821c-1.058,-0.675 -2.433,-0.538 -3.308,0.367c-0.871,0.891 -0.996,2.275 -0.296,3.312l13.942,20.6c0.475,0.696 1.25,1.125 2.092,1.154l0.083,0c0.812,0 1.579,-0.375 2.079,-1.016l11.704,-15.117c0.679,-0.883 0.734,-2.096 0.134,-3.029" style="fill:#fff;fill-rule:nonzero;"/><path d="M1783.09,325.882c0.5,0.525 1.192,0.812 1.904,0.812c0.163,0 0.329,-0.016 0.492,-0.045c0.883,-0.171 1.612,-0.771 1.946,-1.6l5.771,-14.43c0.404,-1.012 0.137,-2.179 -0.663,-2.912c-0.804,-0.742 -1.983,-0.9 -2.962,-0.408l-7.146,3.612l-10.879,-4.425c-1.121,-0.442 -2.459,-0.071 -3.155,0.958c-0.704,1.017 -0.591,2.388 0.267,3.288l14.425,15.15Z" style="fill:#fff;fill-rule:nonzero;"/><path d="M1906.93,183.076l-8.396,3.996l-11.558,-4.512c-1.13,-0.442 -2.417,-0.046 -3.109,0.941c-0.696,0.996 -0.616,2.338 0.188,3.246l13.375,15.104c0.5,0.563 1.216,0.88 1.966,0.88c0.084,-0 0.163,-0.005 0.25,-0.009c0.838,-0.079 1.584,-0.558 2.013,-1.279l8.662,-14.662c0.584,-0.996 0.45,-2.255 -0.325,-3.109c-0.783,-0.846 -2.037,-1.1 -3.066,-0.596" style="fill:#fff;fill-rule:nonzero;"/><path d="M1899.32,490.038l-12.679,3.488l-6.504,-3.396c-0.909,-0.479 -2.021,-0.371 -2.825,0.254c-0.813,0.625 -1.184,1.675 -0.946,2.671l14.525,22.737c0.237,1.013 1.046,1.788 2.058,1.979c0.167,0.034 0.334,0.046 0.496,0.046c0.85,0 1.658,-0.408 2.158,-1.125l6.571,-22.621c0.634,-0.904 0.625,-2.108 -0.012,-3.012c-0.642,-0.913 -1.796,-1.292 -2.842,-1.021" style="fill:#fff;fill-rule:nonzero;"/><path d="M1915.97,616.341c-0.6,-0.938 -1.738,-1.405 -2.804,-1.138l-11.546,2.688l-12.079,-7.821c-1.059,-0.675 -2.434,-0.538 -3.309,0.366c-0.871,0.892 -0.996,2.275 -0.296,3.313l13.942,20.6c0.475,0.696 1.25,1.125 2.092,1.154l0.083,0c0.813,0 1.579,-0.375 2.079,-1.017l11.704,-15.116c0.68,-0.884 0.734,-2.096 0.134,-3.029" style="fill:#fff;fill-rule:nonzero;"/><path d="M2019.4,358.024l-11.063,5.817l-10.662,-0.679c-1.221,-0.129 -2.213,0.617 -2.625,1.692c-0.408,1.079 -0.067,2.295 0.846,3.004l12.237,9.516c0.463,0.359 1.034,0.55 1.613,0.55c0.121,0 0.241,-0.004 0.366,-0.025c0.705,-0.095 1.338,-0.479 1.759,-1.054l10.875,-14.95c0.716,-0.991 0.658,-2.346 -0.138,-3.262c-0.8,-0.934 -2.125,-1.188 -3.208,-0.609" style="fill:#fff;fill-rule:nonzero;"/><path d="M2001.64,540.601l-7.146,3.613l-10.879,-4.425c-1.121,-0.442 -2.459,-0.071 -3.154,0.954c-0.705,1.021 -0.592,2.391 0.262,3.291l14.429,15.15c0.5,0.525 1.192,0.813 1.9,0.813c0.167,-0 0.334,-0.017 0.496,-0.05c0.883,-0.171 1.613,-0.767 1.946,-1.596l5.771,-14.429c0.404,-1.017 0.137,-2.179 -0.667,-2.913c-0.8,-0.741 -1.979,-0.904 -2.958,-0.408" style="fill:#fff;fill-rule:nonzero;"/><path d="M1899.32,490.038l-12.679,3.488l-6.504,-3.396c-0.909,-0.479 -2.021,-0.371 -2.825,0.254c-0.813,0.625 -1.184,1.675 -0.946,2.671l14.525,22.737c0.237,1.013 1.046,1.788 2.058,1.979c0.167,0.034 0.334,0.046 0.496,0.046c0.85,0 1.658,-0.408 2.158,-1.125l6.571,-22.621c0.634,-0.904 0.625,-2.108 -0.012,-3.012c-0.642,-0.913 -1.796,-1.292 -2.842,-1.021" style="fill:#fff;fill-rule:nonzero;"/><path d="M1915.97,616.341c-0.6,-0.938 -1.738,-1.405 -2.804,-1.138l-11.546,2.688l-12.079,-7.821c-1.059,-0.675 -2.434,-0.538 -3.309,0.366c-0.871,0.892 -0.996,2.275 -0.296,3.313l13.942,20.6c0.475,0.696 1.25,1.125 2.092,1.154l0.083,0c0.813,0 1.579,-0.375 2.079,-1.017l11.704,-15.116c0.68,-0.884 0.734,-2.096 0.134,-3.029" style="fill:#fff;fill-rule:nonzero;"/><path d="M1495.32,6.695c-0.6,-0.934 -1.738,-1.404 -2.805,-1.138l-11.545,2.688l-12.08,-7.821c-1.058,-0.675 -2.433,-0.538 -3.308,0.367c-0.871,0.891 -0.996,2.275 -0.296,3.312l13.942,20.6c0.475,0.696 1.25,1.125 2.092,1.154l0.083,0c0.812,0 1.579,-0.375 2.079,-1.016l11.704,-15.117c0.679,-0.883 0.734,-2.096 0.134,-3.029" style="fill:#fff;fill-rule:nonzero;"/><path d="M1889.15,353.391c0.083,0 0.167,-0.004 0.25,-0.012c0.842,-0.08 1.583,-0.555 2.017,-1.28l8.658,-14.662c0.583,-0.992 0.454,-2.25 -0.325,-3.108c-0.779,-0.842 -2.033,-1.1 -3.067,-0.592l-8.396,3.996l-11.554,-4.513c-1.133,-0.441 -2.416,-0.05 -3.108,0.942c-0.696,0.992 -0.617,2.337 0.183,3.246l13.375,15.1c0.5,0.562 1.217,0.883 1.967,0.883" style="fill:#fff;fill-rule:nonzero;"/><path d="M1495.32,6.695c-0.6,-0.934 -1.738,-1.404 -2.805,-1.138l-11.545,2.688l-12.08,-7.821c-1.058,-0.675 -2.433,-0.538 -3.308,0.367c-0.871,0.891 -0.996,2.275 -0.296,3.312l13.942,20.6c0.475,0.696 1.25,1.125 2.092,1.154l0.083,0c0.812,0 1.579,-0.375 2.079,-1.016l11.704,-15.117c0.679,-0.883 0.734,-2.096 0.134,-3.029" style="fill:#fff;fill-rule:nonzero;"/><path d="M1641.12,497.529l-8.396,3.996l-11.558,-4.513c-1.13,-0.441 -2.417,-0.046 -3.109,0.942c-0.696,0.996 -0.616,2.337 0.188,3.246l13.375,15.104c0.5,0.562 1.216,0.879 1.966,0.879c0.084,0 0.163,-0.004 0.25,-0.008c0.838,-0.079 1.584,-0.559 2.013,-1.279l8.662,-14.663c0.584,-0.996 0.45,-2.254 -0.325,-3.108c-0.783,-0.846 -2.037,-1.1 -3.066,-0.596" style="fill:#fff;fill-rule:nonzero;"/><path d="M1899.32,490.038l-12.679,3.488l-6.504,-3.396c-0.909,-0.479 -2.021,-0.371 -2.825,0.254c-0.813,0.625 -1.184,1.675 -0.946,2.671l14.525,22.737c0.237,1.013 1.046,1.788 2.058,1.979c0.167,0.034 0.334,0.046 0.496,0.046c0.85,0 1.658,-0.408 2.158,-1.125l6.571,-22.621c0.634,-0.904 0.625,-2.108 -0.012,-3.012c-0.642,-0.913 -1.796,-1.292 -2.842,-1.021" style="fill:#fff;fill-rule:nonzero;"/><path d="M1915.97,616.341c-0.6,-0.938 -1.738,-1.405 -2.804,-1.138l-11.546,2.688l-12.079,-7.821c-1.059,-0.675 -2.434,-0.538 -3.309,0.366c-0.871,0.892 -0.996,2.275 -0.296,3.313l13.942,20.6c0.475,0.696 1.25,1.125 2.092,1.154l0.083,0c0.813,0 1.579,-0.375 2.079,-1.017l11.704,-15.116c0.68,-0.884 0.734,-2.096 0.134,-3.029" style="fill:#fff;fill-rule:nonzero;"/><path d="M1899.32,490.038l-12.679,3.488l-6.504,-3.396c-0.909,-0.479 -2.021,-0.371 -2.825,0.254c-0.813,0.625 -1.184,1.675 -0.946,2.671l14.525,22.737c0.237,1.013 1.046,1.788 2.058,1.979c0.167,0.034 0.334,0.046 0.496,0.046c0.85,0 1.658,-0.408 2.158,-1.125l6.571,-22.621c0.634,-0.904 0.625,-2.108 -0.012,-3.012c-0.642,-0.913 -1.796,-1.292 -2.842,-1.021" style="fill:#fff;fill-rule:nonzero;"/><path d="M1915.97,616.341c-0.6,-0.938 -1.738,-1.405 -2.804,-1.138l-11.546,2.688l-12.079,-7.821c-1.059,-0.675 -2.434,-0.538 -3.309,0.366c-0.871,0.892 -0.996,2.275 -0.296,3.313l13.942,20.6c0.475,0.696 1.25,1.125 2.092,1.154l0.083,0c0.813,0 1.579,-0.375 2.079,-1.017l11.704,-15.116c0.68,-0.884 0.734,-2.096 0.134,-3.029" style="fill:#fff;fill-rule:nonzero;"/><path d="M1899.32,490.038l-12.679,3.488l-6.504,-3.396c-0.909,-0.479 -2.021,-0.371 -2.825,0.254c-0.813,0.625 -1.184,1.675 -0.946,2.671l14.525,22.737c0.237,1.013 1.046,1.788 2.058,1.979c0.167,0.034 0.334,0.046 0.496,0.046c0.85,0 1.658,-0.408 2.158,-1.125l6.571,-22.621c0.634,-0.904 0.625,-2.108 -0.012,-3.012c-0.642,-0.913 -1.796,-1.292 -2.842,-1.021" style="fill:#fff;fill-rule:nonzero;"/><path d="M1915.97,616.341c-0.6,-0.938 -1.738,-1.405 -2.804,-1.138l-11.546,2.688l-12.079,-7.821c-1.059,-0.675 -2.434,-0.538 -3.309,0.366c-0.871,0.892 -0.996,2.275 -0.296,3.313l13.942,20.6c0.475,0.696 1.25,1.125 2.092,1.154l0.083,0c0.813,0 1.579,-0.375 2.079,-1.017l11.704,-15.116c0.68,-0.884 0.734,-2.096 0.134,-3.029" style="fill:#fff;fill-rule:nonzero;"/><path d="M1899.32,490.038l-12.679,3.488l-6.504,-3.396c-0.909,-0.479 -2.021,-0.371 -2.825,0.254c-0.813,0.625 -1.184,1.675 -0.946,2.671l14.525,22.737c0.237,1.013 1.046,1.788 2.058,1.979c0.167,0.034 0.334,0.046 0.496,0.046c0.85,0 1.658,-0.408 2.158,-1.125l6.571,-22.621c0.634,-0.904 0.625,-2.108 -0.012,-3.012c-0.642,-0.913 -1.796,-1.292 -2.842,-1.021" style="fill:#fff;fill-rule:nonzero;"/><path d="M1915.97,616.341c-0.6,-0.938 -1.738,-1.405 -2.804,-1.138l-11.546,2.688l-12.079,-7.821c-1.059,-0.675 -2.434,-0.538 -3.309,0.366c-0.871,0.892 -0.996,2.275 -0.296,3.313l13.942,20.6c0.475,0.696 1.25,1.125 2.092,1.154l0.083,0c0.813,0 1.579,-0.375 2.079,-1.017l11.704,-15.116c0.68,-0.884 0.734,-2.096 0.134,-3.029" style="fill:#fff;fill-rule:nonzero;"/><path d="M1906.93,964.006l-8.396,3.996l-11.558,-4.512c-1.13,-0.442 -2.417,-0.046 -3.109,0.941c-0.696,0.996 -0.616,2.338 0.188,3.246l13.375,15.104c0.5,0.563 1.216,0.88 1.966,0.88c0.084,-0 0.163,-0.005 0.25,-0.009c0.838,-0.079 1.584,-0.558 2.013,-1.279l8.662,-14.662c0.584,-0.996 0.45,-2.255 -0.325,-3.109c-0.783,-0.846 -2.037,-1.1 -3.066,-0.596" style="fill:#fff;fill-rule:nonzero;"/><path d="M1858.05,750.153l-8.395,3.996l-11.559,-4.513c-1.133,-0.442 -2.416,-0.046 -3.108,0.942c-0.696,0.996 -0.617,2.337 0.187,3.246l13.375,15.104c0.496,0.562 1.217,0.879 1.967,0.879c0.083,-0 0.163,-0.004 0.246,-0.008c0.842,-0.08 1.583,-0.559 2.017,-1.284l8.658,-14.658c0.587,-0.996 0.454,-2.254 -0.321,-3.108c-0.783,-0.846 -2.037,-1.1 -3.067,-0.596" style="fill:#fff;fill-rule:nonzero;"/><path d="M2019.4,358.024l-11.063,5.817l-10.662,-0.679c-1.221,-0.129 -2.213,0.617 -2.625,1.692c-0.408,1.079 -0.067,2.295 0.846,3.004l12.237,9.516c0.463,0.359 1.034,0.55 1.613,0.55c0.121,0 0.241,-0.004 0.366,-0.025c0.705,-0.095 1.338,-0.479 1.759,-1.054l10.875,-14.95c0.716,-0.991 0.658,-2.346 -0.138,-3.262c-0.8,-0.934 -2.125,-1.188 -3.208,-0.609" style="fill:#fff;fill-rule:nonzero;"/><path d="M2001.64,540.601l-7.146,3.613l-10.879,-4.425c-1.121,-0.442 -2.459,-0.071 -3.154,0.954c-0.705,1.021 -0.592,2.391 0.262,3.291l14.429,15.15c0.5,0.525 1.192,0.813 1.9,0.813c0.167,-0 0.334,-0.017 0.496,-0.05c0.883,-0.171 1.613,-0.767 1.946,-1.596l5.771,-14.429c0.404,-1.017 0.137,-2.179 -0.667,-2.913c-0.8,-0.741 -1.979,-0.904 -2.958,-0.408" style="fill:#fff;fill-rule:nonzero;"/><path d="M1899.32,490.038l-12.679,3.488l-6.504,-3.396c-0.909,-0.479 -2.021,-0.371 -2.825,0.254c-0.813,0.625 -1.184,1.675 -0.946,2.671l14.525,22.737c0.237,1.013 1.046,1.788 2.058,1.979c0.167,0.034 0.334,0.046 0.496,0.046c0.85,0 1.658,-0.408 2.158,-1.125l6.571,-22.621c0.634,-0.904 0.625,-2.108 -0.012,-3.012c-0.642,-0.913 -1.796,-1.292 -2.842,-1.021" style="fill:#fff;fill-rule:nonzero;"/><path d="M1915.97,616.341c-0.6,-0.938 -1.738,-1.405 -2.804,-1.138l-11.546,2.688l-12.079,-7.821c-1.059,-0.675 -2.434,-0.538 -3.309,0.366c-0.871,0.892 -0.996,2.275 -0.296,3.313l13.942,20.6c0.475,0.696 1.25,1.125 2.092,1.154l0.083,0c0.813,0 1.579,-0.375 2.079,-1.017l11.704,-15.116c0.68,-0.884 0.734,-2.096 0.134,-3.029" style="fill:#fff;fill-rule:nonzero;"/><path d="M1803.79,972.806l-12.679,3.488l-6.504,-3.396c-0.908,-0.479 -2.021,-0.371 -2.825,0.254c-0.813,0.625 -1.183,1.675 -0.946,2.671l14.525,22.738c0.238,1.012 1.046,1.787 2.058,1.979c0.167,0.033 0.334,0.046 0.496,0.046c0.85,-0 1.659,-0.409 2.159,-1.125l6.57,-22.621c0.634,-0.904 0.625,-2.109 -0.012,-3.013c-0.642,-0.912 -1.796,-1.291 -2.842,-1.021" style="fill:#fff;fill-rule:nonzero;"/><path d="M1920.55,1137.63c-0.6,-0.938 -1.738,-1.404 -2.804,-1.138l-11.546,2.688l-12.079,-7.821c-1.059,-0.675 -2.434,-0.537 -3.309,0.367c-0.87,0.891 -0.995,2.275 -0.295,3.312l13.941,20.6c0.475,0.696 1.25,1.125 2.092,1.154l0.083,0c0.813,0 1.579,-0.375 2.079,-1.016l11.705,-15.117c0.679,-0.883 0.733,-2.096 0.133,-3.029" style="fill:#fff;fill-rule:nonzero;"/><path d="M1641.12,497.529l-8.396,3.996l-11.558,-4.513c-1.13,-0.441 -2.417,-0.046 -3.109,0.942c-0.696,0.996 -0.616,2.337 0.188,3.246l13.375,15.104c0.5,0.562 1.216,0.879 1.966,0.879c0.084,0 0.163,-0.004 0.25,-0.008c0.838,-0.079 1.584,-0.559 2.013,-1.279l8.662,-14.663c0.584,-0.996 0.45,-2.254 -0.325,-3.108c-0.783,-0.846 -2.037,-1.1 -3.066,-0.596" style="fill:#fff;fill-rule:nonzero;"/><path d="M1906.93,964.006l-8.396,3.996l-11.558,-4.512c-1.13,-0.442 -2.417,-0.046 -3.109,0.941c-0.696,0.996 -0.616,2.338 0.188,3.246l13.375,15.104c0.5,0.563 1.216,0.88 1.966,0.88c0.084,-0 0.163,-0.005 0.25,-0.009c0.838,-0.079 1.584,-0.558 2.013,-1.279l8.662,-14.662c0.584,-0.996 0.45,-2.255 -0.325,-3.109c-0.783,-0.846 -2.037,-1.1 -3.066,-0.596" style="fill:#fff;fill-rule:nonzero;"/><path d="M1633.51,683.561l-12.679,3.487l-6.504,-3.396c-0.909,-0.479 -2.021,-0.371 -2.825,0.254c-0.813,0.625 -1.184,1.675 -0.946,2.671l14.525,22.738c0.237,1.012 1.046,1.787 2.058,1.979c0.167,0.033 0.334,0.046 0.496,0.046c0.85,-0 1.658,-0.409 2.158,-1.125l6.571,-22.621c0.634,-0.904 0.625,-2.108 -0.012,-3.013c-0.642,-0.912 -1.796,-1.291 -2.842,-1.02" style="fill:#fff;fill-rule:nonzero;"/><path d="M1246.93,304.006l-8.396,3.996l-11.558,-4.512c-1.13,-0.442 -2.417,-0.046 -3.109,0.941c-0.696,0.996 -0.616,2.338 0.188,3.246l13.375,15.104c0.5,0.563 1.216,0.88 1.966,0.88c0.084,-0 0.163,-0.005 0.25,-0.009c0.838,-0.079 1.584,-0.558 2.013,-1.279l8.662,-14.662c0.584,-0.996 0.45,-2.255 -0.325,-3.109c-0.783,-0.846 -2.037,-1.1 -3.066,-0.596" style="fill:#fff;fill-rule:nonzero;"/><path d="M1131.52,325.156l0.083,0c0.817,0 1.579,-0.37 2.079,-1.016l11.705,-15.117c0.683,-0.879 0.737,-2.092 0.133,-3.029c-0.6,-0.933 -1.738,-1.4 -2.804,-1.138l-11.546,2.692l-12.079,-7.821c-1.059,-0.679 -2.434,-0.537 -3.304,0.363c-0.871,0.896 -1,2.275 -0.3,3.312l13.945,20.6c0.471,0.696 1.25,1.129 2.088,1.154" style="fill:#fff;fill-rule:nonzero;"/><path d="M1046.63,317.185c0.463,0.362 1.029,0.554 1.609,0.554c0.125,-0 0.245,-0.008 0.366,-0.029c0.709,-0.096 1.342,-0.475 1.759,-1.05l10.879,-14.954c0.716,-0.988 0.658,-2.342 -0.138,-3.263c-0.804,-0.929 -2.125,-1.183 -3.208,-0.604l-11.067,5.817l-10.658,-0.68c-1.221,-0.133 -2.217,0.617 -2.625,1.688c-0.408,1.079 -0.071,2.296 0.846,3.004l12.237,9.517Z" style="fill:#fff;fill-rule:nonzero;"/><path d="M788.794,276.189c0.487,0.733 1.308,1.171 2.183,1.171l0.1,-0c0.908,-0.038 1.737,-0.542 2.192,-1.342l12.237,-21.754c0.538,-0.954 0.425,-2.142 -0.287,-2.979c-0.7,-0.829 -1.867,-1.142 -2.892,-0.779l-14.558,5.241l-9.396,-3.841c-1.079,-0.425 -2.296,-0.13 -3.029,0.77c-0.725,0.892 -0.792,2.159 -0.146,3.117l13.596,20.396Z" style="fill:#fff;fill-rule:nonzero;"/><path d="M586.933,304.006l-8.396,3.996l-11.558,-4.512c-1.13,-0.442 -2.417,-0.046 -3.109,0.941c-0.696,0.996 -0.616,2.338 0.188,3.246l13.375,15.104c0.5,0.563 1.216,0.88 1.966,0.88c0.084,-0 0.163,-0.005 0.25,-0.009c0.838,-0.079 1.584,-0.558 2.013,-1.279l8.662,-14.662c0.584,-0.996 0.45,-2.255 -0.325,-3.109c-0.783,-0.846 -2.037,-1.1 -3.066,-0.596" style="fill:#fff;fill-rule:nonzero;"/><path d="M595.966,616.341c-0.6,-0.938 -1.738,-1.405 -2.804,-1.138l-11.546,2.688l-12.079,-7.821c-1.059,-0.675 -2.434,-0.538 -3.309,0.366c-0.871,0.892 -0.996,2.275 -0.296,3.313l13.942,20.6c0.475,0.696 1.25,1.125 2.092,1.154l0.083,0c0.813,0 1.579,-0.375 2.079,-1.017l11.704,-15.116c0.68,-0.884 0.734,-2.096 0.134,-3.029" style="fill:#fff;fill-rule:nonzero;"/><path d="M618.478,724.934c-0.641,-0.912 -1.796,-1.291 -2.841,-1.02l-12.68,3.487l-6.504,-3.396c-0.908,-0.479 -2.021,-0.375 -2.829,0.254c-0.812,0.625 -1.179,1.675 -0.946,2.675l5.354,22.738c0.238,1.008 1.046,1.783 2.063,1.975c0.162,0.029 0.329,0.046 0.492,0.046c0.85,-0 1.658,-0.409 2.158,-1.125l15.746,-22.621c0.629,-0.904 0.625,-2.108 -0.013,-3.013" style="fill:#fff;fill-rule:nonzero;"/><path d="M1246.93,304.006l-8.396,3.996l-11.558,-4.512c-1.13,-0.442 -2.417,-0.046 -3.109,0.941c-0.696,0.996 -0.616,2.338 0.188,3.246l13.375,15.104c0.5,0.563 1.216,0.88 1.966,0.88c0.084,-0 0.163,-0.005 0.25,-0.009c0.838,-0.079 1.584,-0.558 2.013,-1.279l8.662,-14.662c0.584,-0.996 0.45,-2.255 -0.325,-3.109c-0.783,-0.846 -2.037,-1.1 -3.066,-0.596" style="fill:#fff;fill-rule:nonzero;"/><path d="M1131.52,325.156l0.083,0c0.817,0 1.579,-0.37 2.079,-1.016l11.705,-15.117c0.683,-0.879 0.737,-2.092 0.133,-3.029c-0.6,-0.933 -1.738,-1.4 -2.804,-1.138l-11.546,2.692l-12.079,-7.821c-1.059,-0.679 -2.434,-0.537 -3.304,0.363c-0.871,0.896 -1,2.275 -0.3,3.312l13.945,20.6c0.471,0.696 1.25,1.129 2.088,1.154" style="fill:#fff;fill-rule:nonzero;"/><path d="M1046.63,317.185c0.463,0.362 1.029,0.554 1.609,0.554c0.125,-0 0.245,-0.008 0.366,-0.029c0.709,-0.096 1.342,-0.475 1.759,-1.05l10.879,-14.954c0.716,-0.988 0.658,-2.342 -0.138,-3.263c-0.804,-0.929 -2.125,-1.183 -3.208,-0.604l-11.067,5.817l-10.658,-0.68c-1.221,-0.133 -2.217,0.617 -2.625,1.688c-0.408,1.079 -0.071,2.296 0.846,3.004l12.237,9.517Z" style="fill:#fff;fill-rule:nonzero;"/><path d="M788.794,276.189c0.487,0.733 1.308,1.171 2.183,1.171l0.1,-0c0.908,-0.038 1.737,-0.542 2.192,-1.342l12.237,-21.754c0.538,-0.954 0.425,-2.142 -0.287,-2.979c-0.7,-0.829 -1.867,-1.142 -2.892,-0.779l-14.558,5.241l-9.396,-3.841c-1.079,-0.425 -2.296,-0.13 -3.029,0.77c-0.725,0.892 -0.792,2.159 -0.146,3.117l13.596,20.396Z" style="fill:#fff;fill-rule:nonzero;"/><path d="M586.933,304.006l-8.396,3.996l-11.558,-4.512c-1.13,-0.442 -2.417,-0.046 -3.109,0.941c-0.696,0.996 -0.616,2.338 0.188,3.246l13.375,15.104c0.5,0.563 1.216,0.88 1.966,0.88c0.084,-0 0.163,-0.005 0.25,-0.009c0.838,-0.079 1.584,-0.558 2.013,-1.279l8.662,-14.662c0.584,-0.996 0.45,-2.255 -0.325,-3.109c-0.783,-0.846 -2.037,-1.1 -3.066,-0.596" style="fill:#fff;fill-rule:nonzero;"/><path d="M595.966,616.341c-0.6,-0.938 -1.738,-1.405 -2.804,-1.138l-11.546,2.688l-12.079,-7.821c-1.059,-0.675 -2.434,-0.538 -3.309,0.366c-0.871,0.892 -0.996,2.275 -0.296,3.313l13.942,20.6c0.475,0.696 1.25,1.125 2.092,1.154l0.083,0c0.813,0 1.579,-0.375 2.079,-1.017l11.704,-15.116c0.68,-0.884 0.734,-2.096 0.134,-3.029" style="fill:#fff;fill-rule:nonzero;"/><path d="M618.478,724.934c-0.641,-0.912 -1.796,-1.291 -2.841,-1.02l-12.68,3.487l-6.504,-3.396c-0.908,-0.479 -2.021,-0.375 -2.829,0.254c-0.812,0.625 -1.179,1.675 -0.946,2.675l5.354,22.738c0.238,1.008 1.046,1.783 2.063,1.975c0.162,0.029 0.329,0.046 0.492,0.046c0.85,-0 1.658,-0.409 2.158,-1.125l15.746,-22.621c0.629,-0.904 0.625,-2.108 -0.013,-3.013" style="fill:#fff;fill-rule:nonzero;"/><path d="M1246.93,304.006l-8.396,3.996l-11.558,-4.512c-1.13,-0.442 -2.417,-0.046 -3.109,0.941c-0.696,0.996 -0.616,2.338 0.188,3.246l13.375,15.104c0.5,0.563 1.216,0.88 1.966,0.88c0.084,-0 0.163,-0.005 0.25,-0.009c0.838,-0.079 1.584,-0.558 2.013,-1.279l8.662,-14.662c0.584,-0.996 0.45,-2.255 -0.325,-3.109c-0.783,-0.846 -2.037,-1.1 -3.066,-0.596" style="fill:#fff;fill-rule:nonzero;"/><path d="M595.966,616.341c-0.6,-0.938 -1.738,-1.405 -2.804,-1.138l-11.546,2.688l-12.079,-7.821c-1.059,-0.675 -2.434,-0.538 -3.309,0.366c-0.871,0.892 -0.996,2.275 -0.296,3.313l13.942,20.6c0.475,0.696 1.25,1.125 2.092,1.154l0.083,0c0.813,0 1.579,-0.375 2.079,-1.017l11.704,-15.116c0.68,-0.884 0.734,-2.096 0.134,-3.029" style="fill:#fff;fill-rule:nonzero;"/><path d="M835.317,6.695c-0.6,-0.934 -1.738,-1.404 -2.805,-1.138l-11.545,2.688l-12.08,-7.821c-1.058,-0.675 -2.433,-0.538 -3.308,0.367c-0.871,0.891 -0.996,2.275 -0.296,3.312l13.942,20.6c0.475,0.696 1.25,1.125 2.092,1.154l0.083,0c0.812,0 1.579,-0.375 2.079,-1.016l11.704,-15.117c0.679,-0.883 0.734,-2.096 0.134,-3.029" style="fill:#fff;fill-rule:nonzero;"/><path d="M1246.93,304.006l-8.396,3.996l-11.558,-4.512c-1.13,-0.442 -2.417,-0.046 -3.109,0.941c-0.696,0.996 -0.616,2.338 0.188,3.246l13.375,15.104c0.5,0.563 1.216,0.88 1.966,0.88c0.084,-0 0.163,-0.005 0.25,-0.009c0.838,-0.079 1.584,-0.558 2.013,-1.279l8.662,-14.662c0.584,-0.996 0.45,-2.255 -0.325,-3.109c-0.783,-0.846 -2.037,-1.1 -3.066,-0.596" style="fill:#fff;fill-rule:nonzero;"/><path d="M1131.52,325.156l0.083,0c0.817,0 1.579,-0.37 2.079,-1.016l11.705,-15.117c0.683,-0.879 0.737,-2.092 0.133,-3.029c-0.6,-0.933 -1.738,-1.4 -2.804,-1.138l-11.546,2.692l-12.079,-7.821c-1.059,-0.679 -2.434,-0.537 -3.304,0.363c-0.871,0.896 -1,2.275 -0.3,3.312l13.945,20.6c0.471,0.696 1.25,1.129 2.088,1.154" style="fill:#fff;fill-rule:nonzero;"/><path d="M1046.63,317.185c0.463,0.362 1.029,0.554 1.609,0.554c0.125,-0 0.245,-0.008 0.366,-0.029c0.709,-0.096 1.342,-0.475 1.759,-1.05l10.879,-14.954c0.716,-0.988 0.658,-2.342 -0.138,-3.263c-0.804,-0.929 -2.125,-1.183 -3.208,-0.604l-11.067,5.817l-10.658,-0.68c-1.221,-0.133 -2.217,0.617 -2.625,1.688c-0.408,1.079 -0.071,2.296 0.846,3.004l12.237,9.517Z" style="fill:#fff;fill-rule:nonzero;"/><path d="M788.794,276.189c0.487,0.733 1.308,1.171 2.183,1.171l0.1,-0c0.908,-0.038 1.737,-0.542 2.192,-1.342l12.237,-21.754c0.538,-0.954 0.425,-2.142 -0.287,-2.979c-0.7,-0.829 -1.867,-1.142 -2.892,-0.779l-14.558,5.241l-9.396,-3.841c-1.079,-0.425 -2.296,-0.13 -3.029,0.77c-0.725,0.892 -0.792,2.159 -0.146,3.117l13.596,20.396Z" style="fill:#fff;fill-rule:nonzero;"/><path d="M586.933,304.006l-8.396,3.996l-11.558,-4.512c-1.13,-0.442 -2.417,-0.046 -3.109,0.941c-0.696,0.996 -0.616,2.338 0.188,3.246l13.375,15.104c0.5,0.563 1.216,0.88 1.966,0.88c0.084,-0 0.163,-0.005 0.25,-0.009c0.838,-0.079 1.584,-0.558 2.013,-1.279l8.662,-14.662c0.584,-0.996 0.45,-2.255 -0.325,-3.109c-0.783,-0.846 -2.037,-1.1 -3.066,-0.596" style="fill:#fff;fill-rule:nonzero;"/><path d="M595.966,616.341c-0.6,-0.938 -1.738,-1.405 -2.804,-1.138l-11.546,2.688l-12.079,-7.821c-1.059,-0.675 -2.434,-0.538 -3.309,0.366c-0.871,0.892 -0.996,2.275 -0.296,3.313l13.942,20.6c0.475,0.696 1.25,1.125 2.092,1.154l0.083,0c0.813,0 1.579,-0.375 2.079,-1.017l11.704,-15.116c0.68,-0.884 0.734,-2.096 0.134,-3.029" style="fill:#fff;fill-rule:nonzero;"/><path d="M1246.93,304.006l-8.396,3.996l-11.558,-4.512c-1.13,-0.442 -2.417,-0.046 -3.109,0.941c-0.696,0.996 -0.616,2.338 0.188,3.246l13.375,15.104c0.5,0.563 1.216,0.88 1.966,0.88c0.084,-0 0.163,-0.005 0.25,-0.009c0.838,-0.079 1.584,-0.558 2.013,-1.279l8.662,-14.662c0.584,-0.996 0.45,-2.255 -0.325,-3.109c-0.783,-0.846 -2.037,-1.1 -3.066,-0.596" style="fill:#fff;fill-rule:nonzero;"/><path d="M1131.52,325.156l0.083,0c0.817,0 1.579,-0.37 2.079,-1.016l11.705,-15.117c0.683,-0.879 0.737,-2.092 0.133,-3.029c-0.6,-0.933 -1.738,-1.4 -2.804,-1.138l-11.546,2.692l-12.079,-7.821c-1.059,-0.679 -2.434,-0.537 -3.304,0.363c-0.871,0.896 -1,2.275 -0.3,3.312l13.945,20.6c0.471,0.696 1.25,1.129 2.088,1.154" style="fill:#fff;fill-rule:nonzero;"/><path d="M1046.63,317.185c0.463,0.362 1.029,0.554 1.609,0.554c0.125,-0 0.245,-0.008 0.366,-0.029c0.709,-0.096 1.342,-0.475 1.759,-1.05l10.879,-14.954c0.716,-0.988 0.658,-2.342 -0.138,-3.263c-0.804,-0.929 -2.125,-1.183 -3.208,-0.604l-11.067,5.817l-10.658,-0.68c-1.221,-0.133 -2.217,0.617 -2.625,1.688c-0.408,1.079 -0.071,2.296 0.846,3.004l12.237,9.517Z" style="fill:#fff;fill-rule:nonzero;"/><path d="M788.794,276.189c0.487,0.733 1.308,1.171 2.183,1.171l0.1,-0c0.908,-0.038 1.737,-0.542 2.192,-1.342l12.237,-21.754c0.538,-0.954 0.425,-2.142 -0.287,-2.979c-0.7,-0.829 -1.867,-1.142 -2.892,-0.779l-14.558,5.241l-9.396,-3.841c-1.079,-0.425 -2.296,-0.13 -3.029,0.77c-0.725,0.892 -0.792,2.159 -0.146,3.117l13.596,20.396Z" style="fill:#fff;fill-rule:nonzero;"/><path d="M586.933,304.006l-8.396,3.996l-11.558,-4.512c-1.13,-0.442 -2.417,-0.046 -3.109,0.941c-0.696,0.996 -0.616,2.338 0.188,3.246l13.375,15.104c0.5,0.563 1.216,0.88 1.966,0.88c0.084,-0 0.163,-0.005 0.25,-0.009c0.838,-0.079 1.584,-0.558 2.013,-1.279l8.662,-14.662c0.584,-0.996 0.45,-2.255 -0.325,-3.109c-0.783,-0.846 -2.037,-1.1 -3.066,-0.596" style="fill:#fff;fill-rule:nonzero;"/><path d="M595.966,616.341c-0.6,-0.938 -1.738,-1.405 -2.804,-1.138l-11.546,2.688l-12.079,-7.821c-1.059,-0.675 -2.434,-0.538 -3.309,0.366c-0.871,0.892 -0.996,2.275 -0.296,3.313l13.942,20.6c0.475,0.696 1.25,1.125 2.092,1.154l0.083,0c0.813,0 1.579,-0.375 2.079,-1.017l11.704,-15.116c0.68,-0.884 0.734,-2.096 0.134,-3.029" style="fill:#fff;fill-rule:nonzero;"/><path d="M1246.93,304.006l-8.396,3.996l-11.558,-4.512c-1.13,-0.442 -2.417,-0.046 -3.109,0.941c-0.696,0.996 -0.616,2.338 0.188,3.246l13.375,15.104c0.5,0.563 1.216,0.88 1.966,0.88c0.084,-0 0.163,-0.005 0.25,-0.009c0.838,-0.079 1.584,-0.558 2.013,-1.279l8.662,-14.662c0.584,-0.996 0.45,-2.255 -0.325,-3.109c-0.783,-0.846 -2.037,-1.1 -3.066,-0.596" style="fill:#fff;fill-rule:nonzero;"/><path d="M595.966,616.341c-0.6,-0.938 -1.738,-1.405 -2.804,-1.138l-11.546,2.688l-12.079,-7.821c-1.059,-0.675 -2.434,-0.538 -3.309,0.366c-0.871,0.892 -0.996,2.275 -0.296,3.313l13.942,20.6c0.475,0.696 1.25,1.125 2.092,1.154l0.083,0c0.813,0 1.579,-0.375 2.079,-1.017l11.704,-15.116c0.68,-0.884 0.734,-2.096 0.134,-3.029" style="fill:#fff;fill-rule:nonzero;"/><path d="M835.317,6.695c-0.6,-0.934 -1.738,-1.404 -2.805,-1.138l-11.545,2.688l-12.08,-7.821c-1.058,-0.675 -2.433,-0.538 -3.308,0.367c-0.871,0.891 -0.996,2.275 -0.296,3.312l13.942,20.6c0.475,0.696 1.25,1.125 2.092,1.154l0.083,0c0.812,0 1.579,-0.375 2.079,-1.016l11.704,-15.117c0.679,-0.883 0.734,-2.096 0.134,-3.029" style="fill:#fff;fill-rule:nonzero;"/><path d="M1123.09,325.882c0.5,0.525 1.191,0.812 1.904,0.812c0.162,0 0.329,-0.016 0.491,-0.045c0.884,-0.171 1.613,-0.771 1.946,-1.6l5.771,-14.43c0.404,-1.012 0.138,-2.179 -0.662,-2.912c-0.805,-0.742 -1.984,-0.9 -2.963,-0.408l-7.146,3.612l-10.879,-4.425c-1.121,-0.442 -2.458,-0.071 -3.154,0.958c-0.704,1.017 -0.592,2.388 0.267,3.288l14.425,15.15Z" style="fill:#fff;fill-rule:nonzero;"/><path d="M1589.53,308.311c-0.804,-0.746 -1.983,-0.904 -2.958,-0.408l-7.15,3.612l-10.875,-4.425c-1.121,-0.441 -2.458,-0.071 -3.158,0.954c-0.7,1.021 -0.588,2.392 0.266,3.292l14.429,15.15c0.496,0.525 1.188,0.813 1.9,0.813c0.167,-0 0.33,-0.017 0.496,-0.05c0.879,-0.171 1.609,-0.771 1.946,-1.6l5.771,-14.425c0.4,-1.017 0.137,-2.18 -0.667,-2.913" style="fill:#fff;fill-rule:nonzero;"/><path d="M1246.93,304.006l-8.396,3.996l-11.558,-4.512c-1.13,-0.442 -2.417,-0.046 -3.109,0.941c-0.696,0.996 -0.616,2.338 0.188,3.246l13.375,15.104c0.5,0.563 1.216,0.88 1.966,0.88c0.084,-0 0.163,-0.005 0.25,-0.009c0.838,-0.079 1.584,-0.558 2.013,-1.279l8.662,-14.662c0.584,-0.996 0.45,-2.255 -0.325,-3.109c-0.783,-0.846 -2.037,-1.1 -3.066,-0.596" style="fill:#fff;fill-rule:nonzero;"/><path d="M595.966,616.341c-0.6,-0.938 -1.738,-1.405 -2.804,-1.138l-11.546,2.688l-12.079,-7.821c-1.059,-0.675 -2.434,-0.538 -3.309,0.366c-0.871,0.892 -0.996,2.275 -0.296,3.313l13.942,20.6c0.475,0.696 1.25,1.125 2.092,1.154l0.083,0c0.813,0 1.579,-0.375 2.079,-1.017l11.704,-15.116c0.68,-0.884 0.734,-2.096 0.134,-3.029" style="fill:#fff;fill-rule:nonzero;"/><path d="M1246.93,304.006l-8.396,3.996l-11.558,-4.512c-1.13,-0.442 -2.417,-0.046 -3.109,0.941c-0.696,0.996 -0.616,2.338 0.188,3.246l13.375,15.104c0.5,0.563 1.216,0.88 1.966,0.88c0.084,-0 0.163,-0.005 0.25,-0.009c0.838,-0.079 1.584,-0.558 2.013,-1.279l8.662,-14.662c0.584,-0.996 0.45,-2.255 -0.325,-3.109c-0.783,-0.846 -2.037,-1.1 -3.066,-0.596" style="fill:#fff;fill-rule:nonzero;"/><path d="M1131.52,325.156l0.083,0c0.817,0 1.579,-0.37 2.079,-1.016l11.705,-15.117c0.683,-0.879 0.737,-2.092 0.133,-3.029c-0.6,-0.933 -1.738,-1.4 -2.804,-1.138l-11.546,2.692l-12.079,-7.821c-1.059,-0.679 -2.434,-0.537 -3.304,0.363c-0.871,0.896 -1,2.275 -0.3,3.312l13.945,20.6c0.471,0.696 1.25,1.129 2.088,1.154" style="fill:#fff;fill-rule:nonzero;"/><path d="M1046.63,317.185c0.463,0.362 1.029,0.554 1.609,0.554c0.125,-0 0.245,-0.008 0.366,-0.029c0.709,-0.096 1.342,-0.475 1.759,-1.05l10.879,-14.954c0.716,-0.988 0.658,-2.342 -0.138,-3.263c-0.804,-0.929 -2.125,-1.183 -3.208,-0.604l-11.067,5.817l-10.658,-0.68c-1.221,-0.133 -2.217,0.617 -2.625,1.688c-0.408,1.079 -0.071,2.296 0.846,3.004l12.237,9.517Z" style="fill:#fff;fill-rule:nonzero;"/><path d="M788.794,276.189c0.487,0.733 1.308,1.171 2.183,1.171l0.1,-0c0.908,-0.038 1.737,-0.542 2.192,-1.342l12.237,-21.754c0.538,-0.954 0.425,-2.142 -0.287,-2.979c-0.7,-0.829 -1.867,-1.142 -2.892,-0.779l-14.558,5.241l-9.396,-3.841c-1.079,-0.425 -2.296,-0.13 -3.029,0.77c-0.725,0.892 -0.792,2.159 -0.146,3.117l13.596,20.396Z" style="fill:#fff;fill-rule:nonzero;"/><path d="M586.933,304.006l-8.396,3.996l-11.558,-4.512c-1.13,-0.442 -2.417,-0.046 -3.109,0.941c-0.696,0.996 -0.616,2.338 0.188,3.246l13.375,15.104c0.5,0.563 1.216,0.88 1.966,0.88c0.084,-0 0.163,-0.005 0.25,-0.009c0.838,-0.079 1.584,-0.558 2.013,-1.279l8.662,-14.662c0.584,-0.996 0.45,-2.255 -0.325,-3.109c-0.783,-0.846 -2.037,-1.1 -3.066,-0.596" style="fill:#fff;fill-rule:nonzero;"/><path d="M595.966,616.341c-0.6,-0.938 -1.738,-1.405 -2.804,-1.138l-11.546,2.688l-12.079,-7.821c-1.059,-0.675 -2.434,-0.538 -3.309,0.366c-0.871,0.892 -0.996,2.275 -0.296,3.313l13.942,20.6c0.475,0.696 1.25,1.125 2.092,1.154l0.083,0c0.813,0 1.579,-0.375 2.079,-1.017l11.704,-15.116c0.68,-0.884 0.734,-2.096 0.134,-3.029" style="fill:#fff;fill-rule:nonzero;"/><path d="M1347.34,381.041c-1.058,-0.675 -2.433,-0.537 -3.304,0.367c-0.875,0.892 -1,2.275 -0.3,3.308l13.946,20.605c0.471,0.695 1.246,1.125 2.087,1.154l0.084,-0c0.812,-0 1.579,-0.371 2.079,-1.017l11.704,-15.117c0.683,-0.883 0.733,-2.095 0.133,-3.029c-0.6,-0.937 -1.737,-1.404 -2.804,-1.137l-11.55,2.687l-12.075,-7.821Z" style="fill:#fff;fill-rule:nonzero;"/><path d="M1459.07,257.254c0.488,0.733 1.308,1.166 2.183,1.166l0.1,0c0.909,-0.033 1.738,-0.541 2.192,-1.337l12.238,-21.754c0.537,-0.955 0.425,-2.142 -0.288,-2.98c-0.7,-0.829 -1.867,-1.145 -2.892,-0.779l-14.558,5.242l-9.396,-3.842c-1.079,-0.425 -2.296,-0.129 -3.029,0.771c-0.725,0.892 -0.792,2.154 -0.146,3.117l13.596,20.396Z" style="fill:#fff;fill-rule:nonzero;"/><path d="M1515.92,399.156l0.1,0c0.908,-0.037 1.737,-0.541 2.187,-1.337l12.242,-21.754c0.533,-0.959 0.425,-2.142 -0.287,-2.984c-0.7,-0.829 -1.867,-1.141 -2.892,-0.775l-14.558,5.238l-9.396,-3.842c-1.079,-0.425 -2.296,-0.125 -3.029,0.771c-0.73,0.896 -0.792,2.158 -0.15,3.121l13.6,20.396c0.487,0.733 1.304,1.166 2.183,1.166" style="fill:#fff;fill-rule:nonzero;"/><path d="M1348.51,237.664c0.5,0.525 1.187,0.813 1.904,0.813c0.162,-0 0.325,-0.017 0.491,-0.046c0.884,-0.171 1.609,-0.771 1.946,-1.6l5.771,-14.429c0.404,-1.013 0.138,-2.179 -0.667,-2.913c-0.8,-0.741 -1.979,-0.9 -2.958,-0.408l-7.146,3.617l-10.879,-4.429c-1.121,-0.442 -2.458,-0.071 -3.154,0.958c-0.704,1.017 -0.592,2.392 0.267,3.287l14.425,15.15Z" style="fill:#fff;fill-rule:nonzero;"/><path d="M618.478,724.934c-0.641,-0.912 -1.796,-1.291 -2.841,-1.02l-12.68,3.487l-6.504,-3.396c-0.908,-0.479 -2.021,-0.375 -2.829,0.254c-0.812,0.625 -1.179,1.675 -0.946,2.675l5.354,22.738c0.238,1.008 1.046,1.783 2.063,1.975c0.162,0.029 0.329,0.046 0.492,0.046c0.85,-0 1.658,-0.409 2.158,-1.125l15.746,-22.621c0.629,-0.904 0.625,-2.108 -0.013,-3.013" style="fill:#fff;fill-rule:nonzero;"/><path d="M586.933,304.006l-8.396,3.996l-11.558,-4.512c-1.13,-0.442 -2.417,-0.046 -3.109,0.941c-0.696,0.996 -0.616,2.338 0.188,3.246l13.375,15.104c0.5,0.563 1.216,0.88 1.966,0.88c0.084,-0 0.163,-0.005 0.25,-0.009c0.838,-0.079 1.584,-0.558 2.013,-1.279l8.662,-14.662c0.584,-0.996 0.45,-2.255 -0.325,-3.109c-0.783,-0.846 -2.037,-1.1 -3.066,-0.596" style="fill:#fff;fill-rule:nonzero;"/><path d="M471.522,283.456l0.083,0c0.817,0 1.579,-0.37 2.079,-1.016l11.705,-15.117c0.683,-0.879 0.737,-2.092 0.133,-3.029c-0.6,-0.933 -1.738,-1.4 -2.804,-1.138l-11.546,2.692l-12.079,-7.821c-1.059,-0.679 -2.434,-0.537 -3.304,0.363c-0.871,0.896 -1,2.275 -0.3,3.312l13.945,20.6c0.471,0.696 1.25,1.129 2.088,1.154" style="fill:#fff;fill-rule:nonzero;"/><path d="M386.63,317.185c0.463,0.362 1.029,0.554 1.609,0.554c0.125,-0 0.245,-0.008 0.366,-0.029c0.709,-0.096 1.342,-0.475 1.759,-1.05l10.879,-14.954c0.716,-0.988 0.658,-2.342 -0.138,-3.263c-0.804,-0.929 -2.125,-1.183 -3.208,-0.604l-11.067,5.817l-10.658,-0.68c-1.221,-0.133 -2.217,0.617 -2.625,1.688c-0.408,1.079 -0.071,2.296 0.846,3.004l12.237,9.517Z" style="fill:#fff;fill-rule:nonzero;"/><path d="M104.821,446.687c-0.6,-0.938 -1.737,-1.404 -2.804,-1.138l-11.546,2.688l-12.079,-7.821c-1.058,-0.675 -2.433,-0.537 -3.308,0.367c-0.871,0.891 -0.996,2.275 -0.296,3.312l13.941,20.6c0.475,0.696 1.25,1.125 2.092,1.154l0.083,0c0.813,0 1.58,-0.375 2.08,-1.016l11.704,-15.117c0.679,-0.883 0.733,-2.096 0.133,-3.029" style="fill:#fff;fill-rule:nonzero;"/><path d="M595.966,616.341c-0.6,-0.938 -1.738,-1.405 -2.804,-1.138l-11.546,2.688l-12.079,-7.821c-1.059,-0.675 -2.434,-0.538 -3.309,0.366c-0.871,0.892 -0.996,2.275 -0.296,3.313l13.942,20.6c0.475,0.696 1.25,1.125 2.092,1.154l0.083,0c0.813,0 1.579,-0.375 2.079,-1.017l11.704,-15.116c0.68,-0.884 0.734,-2.096 0.134,-3.029" style="fill:#fff;fill-rule:nonzero;"/><path d="M21.641,540.601l-7.146,3.613l-10.879,-4.425c-1.121,-0.442 -2.459,-0.071 -3.154,0.954c-0.705,1.021 -0.592,2.391 0.262,3.291l14.429,15.15c0.5,0.525 1.192,0.813 1.9,0.813c0.167,-0 0.334,-0.017 0.496,-0.05c0.883,-0.171 1.613,-0.767 1.946,-1.596l5.771,-14.429c0.404,-1.017 0.137,-2.179 -0.667,-2.913c-0.8,-0.741 -1.979,-0.904 -2.958,-0.408" style="fill:#fff;fill-rule:nonzero;"/><path d="M586.933,304.006l-8.396,3.996l-11.558,-4.512c-1.13,-0.442 -2.417,-0.046 -3.109,0.941c-0.696,0.996 -0.616,2.338 0.188,3.246l13.375,15.104c0.5,0.563 1.216,0.88 1.966,0.88c0.084,-0 0.163,-0.005 0.25,-0.009c0.838,-0.079 1.584,-0.558 2.013,-1.279l8.662,-14.662c0.584,-0.996 0.45,-2.255 -0.325,-3.109c-0.783,-0.846 -2.037,-1.1 -3.066,-0.596" style="fill:#fff;fill-rule:nonzero;"/><path d="M175.317,6.695c-0.6,-0.934 -1.738,-1.404 -2.805,-1.138l-11.545,2.688l-12.08,-7.821c-1.058,-0.675 -2.433,-0.538 -3.308,0.367c-0.871,0.891 -0.996,2.275 -0.296,3.312l13.942,20.6c0.475,0.696 1.25,1.125 2.092,1.154l0.083,0c0.812,0 1.579,-0.375 2.079,-1.016l11.704,-15.117c0.679,-0.883 0.734,-2.096 0.134,-3.029" style="fill:#fff;fill-rule:nonzero;"/><path d="M313.509,683.561l-12.679,3.487l-6.504,-3.396c-0.909,-0.479 -2.021,-0.371 -2.825,0.254c-0.813,0.625 -1.184,1.675 -0.946,2.671l14.525,22.738c0.237,1.012 1.046,1.787 2.058,1.979c0.167,0.033 0.334,0.046 0.496,0.046c0.85,-0 1.658,-0.409 2.158,-1.125l6.571,-22.621c0.634,-0.904 0.625,-2.108 -0.012,-3.013c-0.642,-0.912 -1.796,-1.291 -2.842,-1.02" style="fill:#fff;fill-rule:nonzero;"/><path d="M586.933,304.006l-8.396,3.996l-11.558,-4.512c-1.13,-0.442 -2.417,-0.046 -3.109,0.941c-0.696,0.996 -0.616,2.338 0.188,3.246l13.375,15.104c0.5,0.563 1.216,0.88 1.966,0.88c0.084,-0 0.163,-0.005 0.25,-0.009c0.838,-0.079 1.584,-0.558 2.013,-1.279l8.662,-14.662c0.584,-0.996 0.45,-2.255 -0.325,-3.109c-0.783,-0.846 -2.037,-1.1 -3.066,-0.596" style="fill:#fff;fill-rule:nonzero;"/><path d="M175.317,6.695c-0.6,-0.934 -1.738,-1.404 -2.805,-1.138l-11.545,2.688l-12.08,-7.821c-1.058,-0.675 -2.433,-0.538 -3.308,0.367c-0.871,0.891 -0.996,2.275 -0.296,3.312l13.942,20.6c0.475,0.696 1.25,1.125 2.092,1.154l0.083,0c0.812,0 1.579,-0.375 2.079,-1.016l11.704,-15.117c0.679,-0.883 0.734,-2.096 0.134,-3.029" style="fill:#fff;fill-rule:nonzero;"/><path d="M55.044,692.321l-14.559,5.237l-9.396,-3.842c-1.079,-0.425 -2.295,-0.125 -3.029,0.771c-0.725,0.892 -0.791,2.159 -0.15,3.121l13.6,20.396c0.488,0.733 1.309,1.167 2.184,1.167l0.1,-0c0.908,-0.038 1.737,-0.542 2.191,-1.338l12.238,-21.754c0.537,-0.958 0.425,-2.142 -0.288,-2.983c-0.7,-0.83 -1.866,-1.142 -2.891,-0.775" style="fill:#fff;fill-rule:nonzero;"/><path d="M147.249,791.354l-14.559,5.242l-9.396,-3.846c-1.079,-0.425 -2.295,-0.125 -3.029,0.771c-0.729,0.896 -0.791,2.158 -0.15,3.121l13.6,20.396c0.488,0.733 1.309,1.166 2.184,1.166l0.1,0c0.908,-0.037 1.737,-0.541 2.191,-1.337l12.234,-21.754c0.537,-0.959 0.425,-2.142 -0.284,-2.984c-0.704,-0.829 -1.866,-1.141 -2.891,-0.775" style="fill:#fff;fill-rule:nonzero;"/><path d="M586.933,304.006l-8.396,3.996l-11.558,-4.512c-1.13,-0.442 -2.417,-0.046 -3.109,0.941c-0.696,0.996 -0.616,2.338 0.188,3.246l13.375,15.104c0.5,0.563 1.216,0.88 1.966,0.88c0.084,-0 0.163,-0.005 0.25,-0.009c0.838,-0.079 1.584,-0.558 2.013,-1.279l8.662,-14.662c0.584,-0.996 0.45,-2.255 -0.325,-3.109c-0.783,-0.846 -2.037,-1.1 -3.066,-0.596" style="fill:#fff;fill-rule:nonzero;"/><path d="M175.317,6.695c-0.6,-0.934 -1.738,-1.404 -2.805,-1.138l-11.545,2.688l-12.08,-7.821c-1.058,-0.675 -2.433,-0.538 -3.308,0.367c-0.871,0.891 -0.996,2.275 -0.296,3.312l13.942,20.6c0.475,0.696 1.25,1.125 2.092,1.154l0.083,0c0.812,0 1.579,-0.375 2.079,-1.016l11.704,-15.117c0.679,-0.883 0.734,-2.096 0.134,-3.029" style="fill:#fff;fill-rule:nonzero;"/><path d="M586.933,304.006l-8.396,3.996l-11.558,-4.512c-1.13,-0.442 -2.417,-0.046 -3.109,0.941c-0.696,0.996 -0.616,2.338 0.188,3.246l13.375,15.104c0.5,0.563 1.216,0.88 1.966,0.88c0.084,-0 0.163,-0.005 0.25,-0.009c0.838,-0.079 1.584,-0.558 2.013,-1.279l8.662,-14.662c0.584,-0.996 0.45,-2.255 -0.325,-3.109c-0.783,-0.846 -2.037,-1.1 -3.066,-0.596" style="fill:#fff;fill-rule:nonzero;"/><path d="M175.317,6.695c-0.6,-0.934 -1.738,-1.404 -2.805,-1.138l-11.545,2.688l-12.08,-7.821c-1.058,-0.675 -2.433,-0.538 -3.308,0.367c-0.871,0.891 -0.996,2.275 -0.296,3.312l13.942,20.6c0.475,0.696 1.25,1.125 2.092,1.154l0.083,0c0.812,0 1.579,-0.375 2.079,-1.016l11.704,-15.117c0.679,-0.883 0.734,-2.096 0.134,-3.029" style="fill:#fff;fill-rule:nonzero;"/><path d="M586.933,304.006l-8.396,3.996l-11.558,-4.512c-1.13,-0.442 -2.417,-0.046 -3.109,0.941c-0.696,0.996 -0.616,2.338 0.188,3.246l13.375,15.104c0.5,0.563 1.216,0.88 1.966,0.88c0.084,-0 0.163,-0.005 0.25,-0.009c0.838,-0.079 1.584,-0.558 2.013,-1.279l8.662,-14.662c0.584,-0.996 0.45,-2.255 -0.325,-3.109c-0.783,-0.846 -2.037,-1.1 -3.066,-0.596" style="fill:#fff;fill-rule:nonzero;"/><path d="M175.317,6.695c-0.6,-0.934 -1.738,-1.404 -2.805,-1.138l-11.545,2.688l-12.08,-7.821c-1.058,-0.675 -2.433,-0.538 -3.308,0.367c-0.871,0.891 -0.996,2.275 -0.296,3.312l13.942,20.6c0.475,0.696 1.25,1.125 2.092,1.154l0.083,0c0.812,0 1.579,-0.375 2.079,-1.016l11.704,-15.117c0.679,-0.883 0.734,-2.096 0.134,-3.029" style="fill:#fff;fill-rule:nonzero;"/><path d="M269.53,308.311c-0.804,-0.746 -1.983,-0.904 -2.958,-0.408l-7.15,3.612l-10.875,-4.425c-1.121,-0.441 -2.458,-0.071 -3.158,0.954c-0.7,1.021 -0.588,2.392 0.266,3.292l14.429,15.15c0.496,0.525 1.188,0.813 1.9,0.813c0.167,-0 0.33,-0.017 0.496,-0.05c0.879,-0.171 1.609,-0.771 1.946,-1.6l5.771,-14.425c0.4,-1.017 0.137,-2.18 -0.667,-2.913" style="fill:#fff;fill-rule:nonzero;"/><path d="M586.933,304.006l-8.396,3.996l-11.558,-4.512c-1.13,-0.442 -2.417,-0.046 -3.109,0.941c-0.696,0.996 -0.616,2.338 0.188,3.246l13.375,15.104c0.5,0.563 1.216,0.88 1.966,0.88c0.084,-0 0.163,-0.005 0.25,-0.009c0.838,-0.079 1.584,-0.558 2.013,-1.279l8.662,-14.662c0.584,-0.996 0.45,-2.255 -0.325,-3.109c-0.783,-0.846 -2.037,-1.1 -3.066,-0.596" style="fill:#fff;fill-rule:nonzero;"/><path d="M586.933,304.006l-8.396,3.996l-11.558,-4.512c-1.13,-0.442 -2.417,-0.046 -3.109,0.941c-0.696,0.996 -0.616,2.338 0.188,3.246l13.375,15.104c0.5,0.563 1.216,0.88 1.966,0.88c0.084,-0 0.163,-0.005 0.25,-0.009c0.838,-0.079 1.584,-0.558 2.013,-1.279l8.662,-14.662c0.584,-0.996 0.45,-2.255 -0.325,-3.109c-0.783,-0.846 -2.037,-1.1 -3.066,-0.596" style="fill:#fff;fill-rule:nonzero;"/><path d="M175.317,6.695c-0.6,-0.934 -1.738,-1.404 -2.805,-1.138l-11.545,2.688l-12.08,-7.821c-1.058,-0.675 -2.433,-0.538 -3.308,0.367c-0.871,0.891 -0.996,2.275 -0.296,3.312l13.942,20.6c0.475,0.696 1.25,1.125 2.092,1.154l0.083,0c0.812,0 1.579,-0.375 2.079,-1.016l11.704,-15.117c0.679,-0.883 0.734,-2.096 0.134,-3.029" style="fill:#fff;fill-rule:nonzero;"/><path d="M27.341,381.041c-1.058,-0.675 -2.433,-0.537 -3.304,0.367c-0.875,0.892 -1,2.275 -0.3,3.308l13.946,20.605c0.471,0.695 1.246,1.125 2.087,1.154l0.084,-0c0.812,-0 1.579,-0.371 2.079,-1.017l11.704,-15.117c0.683,-0.883 0.733,-2.095 0.133,-3.029c-0.6,-0.937 -1.737,-1.404 -2.804,-1.137l-11.546,2.687l-12.079,-7.821Z" style="fill:#fff;fill-rule:nonzero;"/><path d="M586.933,304.006l-8.396,3.996l-11.558,-4.512c-1.13,-0.442 -2.417,-0.046 -3.109,0.941c-0.696,0.996 -0.616,2.338 0.188,3.246l13.375,15.104c0.5,0.563 1.216,0.88 1.966,0.88c0.084,-0 0.163,-0.005 0.25,-0.009c0.838,-0.079 1.584,-0.558 2.013,-1.279l8.662,-14.662c0.584,-0.996 0.45,-2.255 -0.325,-3.109c-0.783,-0.846 -2.037,-1.1 -3.066,-0.596" style="fill:#fff;fill-rule:nonzero;"/><path d="M175.317,6.695c-0.6,-0.934 -1.738,-1.404 -2.805,-1.138l-11.545,2.688l-12.08,-7.821c-1.058,-0.675 -2.433,-0.538 -3.308,0.367c-0.871,0.891 -0.996,2.275 -0.296,3.312l13.942,20.6c0.475,0.696 1.25,1.125 2.092,1.154l0.083,0c0.812,0 1.579,-0.375 2.079,-1.016l11.704,-15.117c0.679,-0.883 0.734,-2.096 0.134,-3.029" style="fill:#fff;fill-rule:nonzero;"/><path d="M139.066,257.254c0.488,0.733 1.308,1.166 2.183,1.166l0.1,0c0.909,-0.033 1.738,-0.541 2.192,-1.337l12.238,-21.754c0.537,-0.955 0.425,-2.142 -0.288,-2.98c-0.7,-0.829 -1.867,-1.145 -2.892,-0.779l-14.558,5.242l-9.396,-3.842c-1.079,-0.425 -2.296,-0.129 -3.029,0.771c-0.725,0.892 -0.792,2.154 -0.146,3.117l13.596,20.396Z" style="fill:#fff;fill-rule:nonzero;"/><path d="M586.933,304.006l-8.396,3.996l-11.558,-4.512c-1.13,-0.442 -2.417,-0.046 -3.109,0.941c-0.696,0.996 -0.616,2.338 0.188,3.246l13.375,15.104c0.5,0.563 1.216,0.88 1.966,0.88c0.084,-0 0.163,-0.005 0.25,-0.009c0.838,-0.079 1.584,-0.558 2.013,-1.279l8.662,-14.662c0.584,-0.996 0.45,-2.255 -0.325,-3.109c-0.783,-0.846 -2.037,-1.1 -3.066,-0.596" style="fill:#fff;fill-rule:nonzero;"/><path d="M175.317,6.695c-0.6,-0.934 -1.738,-1.404 -2.805,-1.138l-11.545,2.688l-12.08,-7.821c-1.058,-0.675 -2.433,-0.538 -3.308,0.367c-0.871,0.891 -0.996,2.275 -0.296,3.312l13.942,20.6c0.475,0.696 1.25,1.125 2.092,1.154l0.083,0c0.812,0 1.579,-0.375 2.079,-1.016l11.704,-15.117c0.679,-0.883 0.734,-2.096 0.134,-3.029" style="fill:#fff;fill-rule:nonzero;"/><path d="M586.933,304.006l-8.396,3.996l-11.558,-4.512c-1.13,-0.442 -2.417,-0.046 -3.109,0.941c-0.696,0.996 -0.616,2.338 0.188,3.246l13.375,15.104c0.5,0.563 1.216,0.88 1.966,0.88c0.084,-0 0.163,-0.005 0.25,-0.009c0.838,-0.079 1.584,-0.558 2.013,-1.279l8.662,-14.662c0.584,-0.996 0.45,-2.255 -0.325,-3.109c-0.783,-0.846 -2.037,-1.1 -3.066,-0.596" style="fill:#fff;fill-rule:nonzero;"/><path d="M175.317,6.695c-0.6,-0.934 -1.738,-1.404 -2.805,-1.138l-11.545,2.688l-12.08,-7.821c-1.058,-0.675 -2.433,-0.538 -3.308,0.367c-0.871,0.891 -0.996,2.275 -0.296,3.312l13.942,20.6c0.475,0.696 1.25,1.125 2.092,1.154l0.083,0c0.812,0 1.579,-0.375 2.079,-1.016l11.704,-15.117c0.679,-0.883 0.734,-2.096 0.134,-3.029" style="fill:#fff;fill-rule:nonzero;"/><path d="M28.509,237.664c0.5,0.525 1.187,0.813 1.904,0.813c0.162,-0 0.329,-0.017 0.491,-0.046c0.884,-0.171 1.609,-0.771 1.946,-1.6l5.771,-14.429c0.404,-1.013 0.138,-2.179 -0.667,-2.913c-0.8,-0.741 -1.979,-0.9 -2.958,-0.408l-7.146,3.617l-10.879,-4.429c-1.121,-0.442 -2.458,-0.071 -3.154,0.958c-0.704,1.017 -0.592,2.392 0.267,3.287l14.425,15.15Z" style="fill:#fff;fill-rule:nonzero;"/><path d="M128.794,936.189c0.487,0.733 1.308,1.171 2.183,1.171l0.1,-0c0.908,-0.038 1.737,-0.542 2.192,-1.342l12.237,-21.754c0.538,-0.954 0.425,-2.142 -0.287,-2.979c-0.7,-0.829 -1.867,-1.142 -2.892,-0.779l-14.558,5.241l-9.396,-3.841c-1.079,-0.425 -2.296,-0.13 -3.029,0.77c-0.725,0.892 -0.792,2.159 -0.146,3.117l13.596,20.396Z" style="fill:#fff;fill-rule:nonzero;"/></g></svg>